<svg width="1487" height="791" viewBox="0 0 1487 791" fill="none" xmlns="http://www.w3.org/2000/svg">
<path d="M0.770617 233.427C19.4337 192.273 48.1754 133.4 86.0634 72.6682C105.989 40.732 116.16 24.5068 128.55 14.0712C180.823 -29.8084 228.003 47.8684 241.512 72.7945C296.363 174.065 282.624 302.169 340.449 355.32C344.416 358.874 357.618 363.919 384.059 373.641C495.109 415.103 505.605 399.282 538.167 432.255C574.275 468.741 598.944 526.148 613.617 560.653C641.975 626.781 649.48 671.321 679.554 707.198C704.942 737.591 729.1 740.96 744.163 742.668C800.456 749.47 824.696 700.16 928.301 631.971C1022.5 570.065 1043.71 583.897 1057.13 605.474C1072.3 629.641 1071.37 653.85 1097.56 704.731C1109.89 728.611 1130.52 768.727 1159.36 784.814C1180.3 796.576 1203.82 786.338 1249.99 765.403C1358.78 715.918 1361.06 714.478 1369 713.612C1397.83 710.589 1439.16 720.702 1486.32 790.214" stroke="url(#paint0_linear_17_3924)" stroke-miterlimit="10" stroke-dasharray="8 8"/>
<defs>
<linearGradient id="paint0_linear_17_3924" x1="-48.7528" y1="-99.1808" x2="2202.77" y2="972.922" gradientUnits="userSpaceOnUse">
<stop stop-color="#555AFE"/>
<stop offset="0.870289" stop-color="#FF8933"/>
</linearGradient>
</defs>
</svg>
