<svg width="1052" height="1045" viewBox="0 0 1052 1045" fill="none" xmlns="http://www.w3.org/2000/svg">
<g filter="url(#filter0_f_2007_39)">
<ellipse cx="231.534" cy="228.088" rx="231.534" ry="228.088" transform="matrix(1 0 0 -1 294 750.177)" fill="#555AFE" fill-opacity="0.22"/>
</g>
<g style="mix-blend-mode:multiply" filter="url(#filter1_f_2007_39)">
<path d="M718.628 610.708V610.708C718.628 612.276 716.121 612.465 715.63 610.976C707.847 587.37 685.638 570.348 659.474 570.348C647.332 570.348 636.041 574.003 626.673 580.291C624.556 581.68 622.537 583.216 620.639 584.898C614.701 588.919 606.574 593.257 596.354 595.841V595.841C585.88 598.498 577.033 589.449 577.033 578.643V556.772C577.033 547.511 569.782 539.614 560.536 539.444C558.857 539.42 557.299 539.614 555.766 540.029C553.601 540.614 551.63 541.613 549.902 542.953V542.953C549.861 542.994 549.799 543.009 549.747 543.035C549.734 543.042 549.722 543.049 549.71 543.057C549.673 543.082 549.64 543.111 549.602 543.134C543.489 546.876 537.376 550.618 531.263 554.36C527.442 556.699 522.649 556.699 518.828 554.36C512.68 550.611 506.556 546.863 500.432 543.114C500.416 543.105 500.402 543.093 500.388 543.081C500.367 543.063 500.346 543.049 500.322 543.036C500.274 543.011 500.203 542.992 500.165 542.953V542.953C498.437 541.613 496.466 540.614 494.301 540.029C492.792 539.614 491.21 539.42 489.556 539.444C480.309 539.614 473.033 547.511 473.033 556.772V578.643C473.033 589.449 464.187 598.498 453.713 595.841V595.841C443.493 593.257 435.366 588.919 429.428 584.898C427.53 583.216 425.511 581.68 423.394 580.291C414.025 574.003 402.735 570.348 390.592 570.348C384.631 570.348 378.888 571.225 373.462 572.882C358.01 577.562 345.211 588.407 337.984 602.567C336.593 605.253 335.406 608.064 334.442 610.978C333.949 612.469 331.438 612.278 331.438 610.708V610.708C331.438 594.768 335.234 579.731 341.975 566.424C346.713 557.004 352.965 548.451 360.372 541.099C360.425 541.046 360.388 540.955 360.313 540.955V540.955C360.237 540.955 360.2 540.863 360.255 540.81C368.088 533.352 375.946 525.869 383.779 518.386C402.765 500.314 421.751 482.22 440.737 464.125C442.957 462.009 444.848 459.57 446.957 457.343C448.701 455.501 450.693 453.896 452.863 452.562C452.894 452.543 452.926 452.525 452.958 452.509V452.509C457.192 449.926 462.132 448.415 467.461 448.415C476.002 448.415 483.667 452.217 488.826 458.236L492.184 461.6C495.931 464.963 499.557 468.448 503.133 471.958C505.25 473.908 507.392 475.882 509.484 477.856C518.244 486.069 531.822 486.069 540.582 477.856C542.699 475.882 544.816 473.908 546.958 471.958C550.535 468.448 554.136 464.963 557.883 461.6L561.241 458.236C566.4 452.217 574.065 448.415 582.606 448.415C587.915 448.415 592.838 449.915 597.062 452.481C597.093 452.5 597.125 452.517 597.157 452.533V452.533C599.344 453.872 601.352 455.487 603.108 457.341C605.218 459.569 607.111 462.01 609.333 464.127C636.153 489.682 662.994 515.257 689.812 540.81C689.867 540.863 689.83 540.955 689.754 540.955V540.955C689.679 540.955 689.642 541.046 689.695 541.099C707.568 558.855 718.628 583.484 718.628 610.708Z" fill="black" fill-opacity="0.6"/>
</g>
<defs>
<filter id="filter0_f_2007_39" x="0" y="0" width="1051.07" height="1044.18" filterUnits="userSpaceOnUse" color-interpolation-filters="sRGB">
<feFlood flood-opacity="0" result="BackgroundImageFix"/>
<feBlend mode="normal" in="SourceGraphic" in2="BackgroundImageFix" result="shape"/>
<feGaussianBlur stdDeviation="147" result="effect1_foregroundBlur_2007_39"/>
</filter>
<filter id="filter1_f_2007_39" x="297.438" y="414.415" width="455.19" height="231.583" filterUnits="userSpaceOnUse" color-interpolation-filters="sRGB">
<feFlood flood-opacity="0" result="BackgroundImageFix"/>
<feBlend mode="normal" in="SourceGraphic" in2="BackgroundImageFix" result="shape"/>
<feGaussianBlur stdDeviation="17" result="effect1_foregroundBlur_2007_39"/>
</filter>
</defs>
</svg>
