<svg width="1426" height="994" viewBox="0 0 1426 994" fill="none" xmlns="http://www.w3.org/2000/svg">
<g style="mix-blend-mode:multiply" filter="url(#filter0_f_2006_32)">
<path d="M1138.44 730.148C1138.44 733.595 1132.93 734.01 1131.85 730.738C1114.74 678.862 1065.94 641.455 1008.44 641.455C981.759 641.455 956.947 649.489 936.36 663.307C931.708 666.36 927.269 669.734 923.098 673.43C910.051 682.267 892.191 691.8 869.732 697.478C869.321 697.582 868.911 697.684 868.502 697.784C846.122 703.28 827.274 683.996 827.274 660.952V611.623C827.274 591.27 811.338 573.917 791.018 573.542C787.329 573.489 783.906 573.917 780.538 574.828C775.778 576.113 771.447 578.309 767.65 581.255C767.56 581.345 767.424 581.377 767.31 581.434C767.281 581.449 767.254 581.465 767.228 581.483C767.147 581.537 767.074 581.602 766.991 581.652C753.557 589.875 740.124 598.098 726.69 606.32C718.294 611.462 707.76 611.462 699.365 606.32C685.853 598.083 672.396 589.846 658.938 581.608C658.903 581.587 658.871 581.561 658.84 581.534C658.795 581.495 658.748 581.464 658.696 581.437C658.59 581.382 658.435 581.339 658.35 581.255C654.554 578.309 650.222 576.113 645.463 574.828C642.148 573.917 638.672 573.489 635.036 573.542C614.716 573.917 598.727 591.27 598.727 611.623V660.952C598.727 683.996 579.879 703.28 557.499 697.784C557.09 697.684 556.68 697.582 556.269 697.478C533.81 691.8 515.95 682.267 502.902 673.43C498.731 669.734 494.293 666.36 489.641 663.307C469.054 649.489 444.242 641.455 417.558 641.455C404.457 641.455 391.838 643.383 379.913 647.025C345.957 657.308 317.83 681.142 301.948 712.26C298.891 718.161 296.284 724.34 294.165 730.743C293.08 734.02 287.564 733.601 287.564 730.148C287.564 695.121 295.906 662.075 310.718 632.832C321.131 612.133 334.869 593.336 351.146 577.179C351.263 577.063 351.181 576.863 351.017 576.863C350.85 576.863 350.769 576.66 350.89 576.545C368.104 560.154 385.372 543.711 402.586 527.268C445.642 486.284 488.697 445.249 531.753 404.213C533.973 402.097 535.91 399.708 537.809 397.3C542.406 391.469 548.058 386.513 554.402 382.614C554.47 382.572 554.54 382.534 554.611 382.498C563.916 376.821 574.771 373.5 586.482 373.5C605.251 373.5 622.095 381.855 633.432 395.084L640.811 402.475C649.046 409.866 657.013 417.525 664.874 425.238C669.526 429.523 674.232 433.861 678.831 438.199C698.081 456.248 727.919 456.248 747.17 438.199C751.822 433.861 756.474 429.523 761.18 425.238C769.041 417.525 776.955 409.866 785.19 402.475L792.569 395.084C803.906 381.855 820.75 373.5 839.519 373.5C851.187 373.5 862.006 376.796 871.287 382.436C871.355 382.477 871.425 382.516 871.496 382.551C877.881 386.46 883.568 391.436 888.19 397.297C890.091 399.707 892.028 402.097 894.25 404.214C954.521 461.642 1014.84 519.119 1075.11 576.545C1075.23 576.66 1075.15 576.863 1074.98 576.863C1074.82 576.863 1074.74 577.063 1074.85 577.179C1114.13 616.2 1138.44 670.324 1138.44 730.148Z" fill="black"/>
</g>
<g filter="url(#filter1_f_2006_32)">
<ellipse cx="418.25" cy="202.584" rx="418.25" ry="202.584" transform="matrix(1 0 0 -1 294.75 699.796)" fill="#555AFE" fill-opacity="0.22"/>
</g>
<defs>
<filter id="filter0_f_2006_32" x="233.564" y="319.5" width="958.873" height="467.484" filterUnits="userSpaceOnUse" color-interpolation-filters="sRGB">
<feFlood flood-opacity="0" result="BackgroundImageFix"/>
<feBlend mode="normal" in="SourceGraphic" in2="BackgroundImageFix" result="shape"/>
<feGaussianBlur stdDeviation="27" result="effect1_foregroundBlur_2006_32"/>
</filter>
<filter id="filter1_f_2006_32" x="0.75" y="0.627441" width="1424.5" height="993.169" filterUnits="userSpaceOnUse" color-interpolation-filters="sRGB">
<feFlood flood-opacity="0" result="BackgroundImageFix"/>
<feBlend mode="normal" in="SourceGraphic" in2="BackgroundImageFix" result="shape"/>
<feGaussianBlur stdDeviation="147" result="effect1_foregroundBlur_2006_32"/>
</filter>
</defs>
</svg>
