<svg width="55" height="54" viewBox="0 0 55 54" fill="none" xmlns="http://www.w3.org/2000/svg">
<rect x="0.577637" width="54" height="54" rx="10" fill="#60606E" fill-opacity="0.2"/>
<path d="M49.2026 37.1525C48.8492 33.8167 47.1056 31.0538 44.6085 30.3016C43.2733 29.8987 41.538 30.0151 40.1423 30.5463C38.4784 31.1794 37.9202 32.1671 35.892 32.761C34.8854 33.0553 34.0026 33.1116 33.4168 33.1129V28.2229C33.4168 26.7905 31.7063 25.9637 30.4907 26.8088C29.5309 27.4747 28.5739 28.1392 27.6155 28.8051C27.6031 28.8129 27.5907 28.8221 27.5783 28.8312C27.566 28.8221 27.5522 28.8142 27.5398 28.8051C26.5814 28.1392 25.6244 27.4747 24.6646 26.8088C23.449 25.9637 21.7384 26.7905 21.7384 28.2229V33.1129C21.1527 33.1129 20.2699 33.0553 19.2633 32.761C17.2351 32.1671 16.6768 31.1794 15.013 30.5463C13.6173 30.0151 11.882 29.8987 10.5468 30.3016C8.04969 31.0538 6.30611 33.8167 5.95272 37.1525C5.76296 36.471 5.55257 35.4558 5.58007 34.2288C5.65433 30.9322 7.10364 28.1719 9.5375 25.8564L19.0419 16.8143C20.1832 15.7286 22.0341 15.7286 23.1754 16.8143L25.6367 19.156C26.7093 20.1763 28.4487 20.1763 29.5199 19.156C30.3395 18.3763 31.1604 17.5953 31.9799 16.8156C33.1212 15.7299 34.972 15.7299 36.1133 16.8156C39.2815 19.8297 42.4496 22.8437 45.6178 25.8578C48.0516 28.1732 49.5009 30.9335 49.5752 34.2301C49.6027 35.4571 49.3923 36.4723 49.2026 37.1538V37.1525Z" fill="#1758FF"/>
</svg>
