<svg width="95" height="94" viewBox="0 0 95 94" fill="none" xmlns="http://www.w3.org/2000/svg">
<path d="M78.0109 58.4759C69.9426 66.5051 58.3884 68.9726 48.2442 65.8001L29.7967 84.2084C28.465 85.5792 25.8409 86.4017 23.9609 86.1276L15.4225 84.9526C12.6025 84.5609 9.97838 81.8976 9.54754 79.0776L8.37254 70.5393C8.09838 68.6593 8.99921 66.0351 10.2917 64.7034L28.7 46.2951C25.5667 36.1118 27.995 24.5576 36.0634 16.5284C47.6175 4.97425 66.3784 4.97425 77.9717 16.5284C89.5651 28.0826 89.5651 46.9218 78.0109 58.4759Z" stroke="#1758FF" stroke-width="1.5" stroke-miterlimit="10" stroke-linecap="round" stroke-linejoin="round"/>
<path d="M27.4858 68.5024L36.4942 77.5108" stroke="#1758FF" stroke-width="1.5" stroke-miterlimit="10" stroke-linecap="round" stroke-linejoin="round"/>
<path d="M57.2917 43.0833C60.5364 43.0833 63.1667 40.4529 63.1667 37.2083C63.1667 33.9636 60.5364 31.3333 57.2917 31.3333C54.0471 31.3333 51.4167 33.9636 51.4167 37.2083C51.4167 40.4529 54.0471 43.0833 57.2917 43.0833Z" stroke="#1758FF" stroke-width="1.5" stroke-linecap="round" stroke-linejoin="round"/>
</svg>
