<svg width="94" height="94" viewBox="0 0 94 94" fill="none" xmlns="http://www.w3.org/2000/svg">
<path d="M70.6568 53.0709C69.0118 54.6767 68.0718 56.9876 68.3068 59.4551C68.6593 63.6851 72.5368 66.7792 76.7668 66.7792H84.2084V71.44C84.2084 79.5475 77.5893 86.1667 69.4818 86.1667H24.5184C16.4109 86.1667 9.79175 79.5475 9.79175 71.44V45.081C9.79175 36.9735 16.4109 30.3542 24.5184 30.3542H69.4818C77.5893 30.3542 84.2084 36.9735 84.2084 45.081V50.721H76.2968C74.1034 50.721 72.1059 51.5825 70.6568 53.0709Z" stroke="#1758FF" stroke-width="1.5" stroke-linecap="round" stroke-linejoin="round"/>
<path d="M9.79175 48.6059V30.7069C9.79175 26.0461 12.6509 21.8942 16.9984 20.2492L48.0968 8.49922C52.9534 6.65839 58.1626 10.2618 58.1626 15.471V30.3543" stroke="#1758FF" stroke-width="1.5" stroke-linecap="round" stroke-linejoin="round"/>
<path d="M88.3554 54.7165V62.7851C88.3554 64.9392 86.6321 66.7016 84.4388 66.7799H76.7621C72.5321 66.7799 68.6546 63.6858 68.3021 59.4558C68.0671 56.9883 69.0071 54.6774 70.6521 53.0716C72.1013 51.5833 74.0988 50.7217 76.2921 50.7217H84.4388C86.6321 50.8 88.3554 52.5624 88.3554 54.7165Z" stroke="#1758FF" stroke-width="1.5" stroke-linecap="round" stroke-linejoin="round"/>
<path d="M27.4167 47H54.8334" stroke="#1758FF" stroke-width="1.5" stroke-linecap="round" stroke-linejoin="round"/>
</svg>
