<svg width="95" height="94" viewBox="0 0 95 94" fill="none" xmlns="http://www.w3.org/2000/svg">
<path d="M8.3335 66.8184H47.5002" stroke="#1758FF" stroke-width="1.5" stroke-miterlimit="10" stroke-linecap="round" stroke-linejoin="round"/>
<path d="M17.0284 52.875H38.8053C45.7769 52.875 47.5002 54.5983 47.5002 61.4917V77.5892C47.5002 84.4825 45.7769 86.2058 38.8053 86.2058H17.0284C10.0567 86.2058 8.3335 84.4825 8.3335 77.5892V61.4917C8.3335 54.5983 10.0567 52.875 17.0284 52.875Z" stroke="#1758FF" stroke-width="1.5" stroke-linecap="round" stroke-linejoin="round"/>
<path d="M86.6667 58.75C86.6667 73.9075 74.4075 86.1667 59.25 86.1667L63.3625 79.3125" stroke="#1758FF" stroke-width="1.5" stroke-linecap="round" stroke-linejoin="round"/>
<path d="M8.3335 35.2499C8.3335 20.0924 20.5927 7.83325 35.7502 7.83325L31.6377 14.6874" stroke="#1758FF" stroke-width="1.5" stroke-linecap="round" stroke-linejoin="round"/>
<path d="M72.9585 43.0833C82.6925 43.0833 90.5835 35.1923 90.5835 25.4583C90.5835 15.7242 82.6925 7.83325 72.9585 7.83325C63.2245 7.83325 55.3335 15.7242 55.3335 25.4583C55.3335 35.1923 63.2245 43.0833 72.9585 43.0833Z" stroke="#1758FF" stroke-width="1.5" stroke-linecap="round" stroke-linejoin="round"/>
</svg>
