<svg width="95" height="30" viewBox="0 0 95 30" fill="none" xmlns="http://www.w3.org/2000/svg">
<g clip-path="url(#clip0_17_3694)">
<path d="M16.7983 4.88709L16.726 4.59733V4.34189L16.6917 4.05213L16.4747 3.54505L16.3301 3.11041L16.2197 2.92741L16.075 2.71009L15.7477 2.42033L15.2795 1.91325L14.8798 1.58537L14.5524 1.44049L14.1908 1.2613L13.7569 1.15073L13.2163 1.00585L12.8509 0.971539L12.455 0.8991H11.3664L10.8601 0.860974L9.41359 0.8991L7.63974 0.82666H6.87843L6.47874 0.860974L6.26177 0.82666H5.35581L4.84954 0.860974L4.52598 1.15073L4.4156 1.33374L4.34327 1.65781L4.30901 2.20301L4.27095 2.45846V2.74822L4.16436 3.21717L3.94358 4.09026L3.837 4.55921L3.72661 5.10441L3.65429 6.26726L3.50964 6.77434L3.43731 7.31573L3.40305 7.53305L3.33073 7.75036V8.00581L3.29266 8.22313L3.2584 8.55101L3.14801 8.84077L3.11376 9.05809L3.04143 9.30972L3.00337 9.74817L2.96911 10.0722L2.85872 10.4001L2.78639 10.6518L2.75213 10.9072V11.197L2.67981 11.704L2.53516 12.2111L2.49709 12.5047L2.35245 12.9736L2.28012 13.1566L2.24206 13.6637L2.09741 14.1708L2.02508 14.533L1.99082 14.6779V14.8952L1.88043 15.3298L1.84618 15.5853L1.77385 16.058L1.66346 16.527V16.7824L1.6292 16.9998L1.55688 17.2895L1.44649 17.5793L1.3399 18.0864L1.37416 18.4486L1.22951 18.8146L1.15719 19.3941L1.08487 19.9355L1.05061 20.1566L0.940217 20.4464L0.902152 20.7361L0.829827 20.9878L0.795568 21.2432L0.723244 21.4605L0.685178 21.9676L0.612854 22.4747L0.468205 22.9474L0.433946 23.2029L0.361622 23.6375L0.289298 24.1446L0.216973 24.4687L0.106583 24.7622V25.3036L0.0342589 25.6658L0 25.9556L0.251232 26.1767L0.578595 26.211L1.11912 26.2492H1.41223L1.6292 26.2835H3.11376L3.69235 26.2492H3.98165L4.56024 26.3216L5.10458 26.2835H5.21116L5.50046 26.2492H6.01054L6.29984 26.2835L6.76804 26.3216L7.74632 26.2835L8.00136 26.2492L8.25259 26.2835L8.79693 26.3216L9.34127 26.211L9.55824 26.2492L10.0303 26.1386L10.3538 26.1043L10.5708 26.0662L10.8601 25.9556L11.2598 25.8488L11.5491 25.704L11.8041 25.5934L11.983 25.4866L12.1657 25.3418L12.417 25.1969L12.5997 25.0139L12.8166 24.9071L13.1059 24.7241L13.2506 24.5449L13.5056 24.3238L13.6845 24.1446L13.9015 23.7443L14.2289 23.3096L14.8075 22.1506L14.8798 21.8952L14.9521 21.6778L15.0244 21.4224L15.0968 21.2051L15.2072 20.698L15.2414 20.4464L15.3518 19.9736L15.4584 19.4284L15.5307 18.887L15.5688 18.6316V18.1588L15.603 17.8347L15.5307 17.4725L15.5688 16.9998L15.4241 16.527L15.3518 16.058L15.2414 15.8407L15.1691 15.4785L14.9902 15.0782L14.8455 14.8228L14.6286 14.4606L14.4078 14.2432L14.1908 13.9916L13.7569 13.698L13.4333 13.5532L13.0336 13.3358L12.672 13.191V12.9736L12.9956 12.8288L13.4333 12.6458L13.8673 12.3941L14.1185 12.2492L14.3012 12.1044L14.4801 11.887L14.6628 11.7422L15.1348 11.2694L15.4241 10.8348L15.6754 10.4726L15.9304 10.0722L16.075 9.74817L16.1816 9.53085L16.2578 9.27541L16.3301 9.05809L16.3643 8.80265L16.4024 8.69589L16.4747 8.44045L16.4367 8.22313L16.5813 7.75036L16.6194 7.49873L16.6917 7.02597V6.80865L16.764 6.55702L16.7983 6.33589V6.08425L16.8364 5.86693L16.8706 5.32173L16.7983 4.88709ZM10.3919 18.2694L10.3195 18.9213L10.1368 19.3941L10.0988 19.6838L10.0303 19.9355L9.84754 20.3358L9.80947 20.6256L9.5925 20.9534L9.34127 21.1708L9.0139 21.4224L8.76267 21.533H8.50763L8.25259 21.6435H7.56742L6.66146 21.533L6.33409 21.6435L5.7555 21.6054L5.90015 21.1326L5.93821 20.8429L6.01054 20.5531L6.08286 20.046V19.7906L6.18945 19.2492L6.26177 18.9938L6.33409 18.4867L6.37216 18.1969L6.44448 17.9796V17.7242L6.51681 17.4725L6.58913 16.9273L6.66146 16.7824L6.73378 16.4927L6.80611 15.8407L6.91269 15.5128H7.42277L7.81865 15.551H8.32492L8.61422 15.6196L8.97964 15.6958L9.66482 15.9475L10.0645 16.3097L10.3919 17.1828L10.3538 17.6517L10.3919 18.2694ZM11.5833 7.49873L11.5491 7.78849L11.4767 8.00581L11.3664 8.44045L11.1874 8.94753L10.8981 9.30972L10.7154 9.63761L10.2815 9.99981L9.8818 10.2553L9.5925 10.4344L9.15855 10.5069L8.65228 10.545L8.21834 10.5069H7.74632V10.2896L7.78439 9.92737L7.85671 9.63761L8.10795 7.86093L8.18027 7.64361L8.21834 7.38817L8.32492 6.91921V6.66377L8.43531 6.22913L8.46957 5.97369L8.50763 5.64961L8.61422 5.32173V5.0701L8.90732 4.99766H9.80947L10.4642 5.0701L10.7878 5.14254L11.0047 5.17685L11.294 5.4323L11.4044 5.61149L11.6214 6.04613L11.6595 6.48458L11.6937 6.73621L11.7318 7.13653L11.5833 7.49873Z" fill="white"/>
<path d="M31.7884 25.704V24.9415L31.7541 24.1447V23.8168L31.716 23.527L31.7541 23.0199V22.4747L31.716 22.2231L31.6818 21.7503V21.533L31.6095 20.1567L31.6437 19.9012L31.6095 19.3942L31.6437 18.849L31.6095 18.3037V18.0521L31.5714 16.3822V15.2956L31.5371 15.0058L31.4991 14.5712V13.1567L31.4267 12.7564L31.3925 12.1769V11.9596L31.3544 11.4868L31.3925 11.2695L31.3544 10.7624V10.038L31.2821 9.53092V8.73028L31.3202 8.47864L31.2821 7.93344V7.42636L31.2098 6.70197L31.1755 6.2292V5.72213L31.1374 4.4144V3.76244L31.0651 3.54512V2.74829L30.9547 1.18893L30.7035 1.00592L30.5208 0.933483H29.9422L29.6148 0.97161L29.3636 0.89917H29.0362L28.3511 0.933483H27.7687L27.407 0.97161L26.7219 0.933483H26.3564L26.1052 0.97161L25.9605 1.36812L25.8502 1.58544L25.7436 1.84089L25.4162 2.49284L25.165 2.96561L24.9442 3.61756L24.8719 3.80057L24.7272 4.01789L24.5102 4.4144L24.4379 4.66984L24.3656 4.88716L24.259 5.10448L24.1867 5.35993L23.8593 6.01188L23.7527 6.26733L23.6424 6.62953L23.4254 6.9536L23.315 7.17092L23.1361 7.64368L22.8468 8.4062L22.7021 8.62352L22.5194 8.87516L22.4128 9.38223L22.1959 9.855L22.1197 10.038L22.0132 10.507L21.8304 10.7624L21.7239 11.2352L21.6135 11.4525L21.3965 11.849L21.2176 12.4666L20.9625 12.9394L20.856 13.2292L20.5667 14.2433L20.4563 14.4606L20.2736 14.9677L20.167 15.185L20.0566 15.4405L20.0223 15.6578L19.8054 16.1649L19.733 16.4203L19.5161 16.855L19.3333 17.1447L19.261 17.4726L19.1887 17.7242L18.9337 18.2313L18.8271 18.4868L18.6444 18.9595L18.5378 19.1768L18.4997 19.4285L18.4274 19.6458L18.2485 20.0804L18.0658 20.3359L17.9934 20.5532L17.7041 21.2051L17.5595 21.6779L17.1598 22.5472L16.9809 22.9818L16.7639 23.4203L16.4023 24.5069L16.113 24.9796L15.8922 25.4143L15.858 25.6316L15.7856 25.8832L15.858 26.1768L16.1853 26.2492L18.8271 26.2835L19.0821 26.3217L19.6226 26.356L19.9119 26.3217L20.9283 26.356L21.1453 26.2111L21.2899 25.9557L21.3965 25.7765L21.5069 25.3761L21.7239 24.8348L22.0855 24.1447L22.2301 23.71L22.3405 23.4546L22.4128 23.203L22.6641 22.7302L22.8468 22.3299H23.8251L25.4162 22.368L25.9948 22.4404L26.7942 22.4747L26.8284 22.7645V24.4687L26.7942 24.8348L26.8284 25.1969L26.8665 25.8489L26.9388 26.2111L27.0835 26.3217H27.624L28.096 26.356L28.4576 26.3217L28.7127 26.2835L29.1466 26.3217H29.4359L30.2315 26.2835H30.7378L31.0271 26.3217L31.2821 26.2835C31.4267 26.2835 31.5371 26.3217 31.6818 26.2835C31.8607 26.1768 31.8264 25.8489 31.7884 25.704ZM27.0454 11.9939L27.0112 13.374L27.0454 14.2433L26.9731 14.5331V15.1507L26.9388 15.4062V16.3479L26.9008 16.6376L26.9388 16.9274L26.9008 17.4345L26.6838 17.6175H25.5989L25.2716 17.5793L24.8719 17.545H24.5826L24.3313 17.3277L24.4379 17.0723L24.5102 16.7444L24.5826 16.4928L24.7653 15.8751L24.9099 15.6197L25.0927 15.0783L25.1269 14.8228L25.3439 14.026L25.4543 13.6981L25.5609 13.4465L25.6712 13.1186L25.8159 12.867L25.8502 12.6115L25.9948 12.2493L26.1395 11.9596L26.3222 11.38L26.4287 11.0178L26.6115 10.4345L26.7561 9.96556L27.0454 9.855L27.0835 10.69L27.0454 11.9939Z" fill="white"/>
<path d="M38.9144 16.588H38.9791C37.8105 17.7432 36.8246 19.0891 36.0785 20.5722L35.9529 21.0983L35.9909 21.3881L35.9529 21.6435L35.774 22.1506V22.4022L35.7359 22.9093L35.6636 23.1304L35.6293 23.6718L35.557 23.9273L35.302 24.6898L35.2677 25.4485L35.1954 25.9937L35.4542 26.2263C36.5848 24.0112 38.587 22.3145 41.0042 21.5825L41.0955 21.2051L41.2059 20.7361L41.2402 20.4807L41.3848 20.0079L41.4952 19.4284L41.6018 18.9213L41.5675 18.6697L41.6018 18.4486L41.6399 18.1969L41.7845 17.7623L41.8188 17.5068L41.8911 17.2895L41.9292 17.0722V16.71L42.0015 16.3821L42.1081 15.8407L42.2185 15.3298V15.1125L42.2908 14.8952L42.325 14.3881L42.4735 14.1327L42.5801 13.698L42.6181 13.2291V13.0575C41.3848 14.2356 40.1477 15.4137 38.9144 16.588ZM36.6533 26.2835H39.6833L40.1172 26.1043L40.1896 25.8832L40.3 25.3761L40.3723 24.869L40.5893 23.8548L40.7682 23.058L40.7415 22.8216C39.0324 23.485 37.5897 24.7089 36.6533 26.2835ZM48.5183 0.971539L48.1909 0.8991L47.6847 0.860974H45.4388L45.1152 0.82666L44.3539 0.860974L43.8096 0.82666L41.4952 0.860974H40.6958L40.4446 0.82666H37.7648L37.5098 0.860974H37.2585L37.0758 0.82666H36.1356L35.8806 0.860974L35.557 1.11642L35.3743 1.51293L35.34 1.73025V2.24114L35.2296 2.45846L35.085 2.92741L35.0469 3.43449L34.9746 3.65562L34.83 4.1627L34.868 4.41433V4.70409L34.7576 4.99766L34.6853 5.4323L34.7957 5.75637L35.1231 5.86693H35.4124L35.774 5.90125H36.0975L36.3526 5.86693L36.8588 5.90125H38.8154L38.7773 6.48458L38.705 7.02597L38.6327 7.28141L38.5261 7.75036V7.9715L38.488 8.22313V8.44045L38.4538 8.65777L38.2711 9.23728L38.1987 9.49273L38.1645 9.74817V10.0379L38.0922 10.2171V10.5793L37.9094 10.9796L37.9437 11.2351L37.8371 11.7765L37.7648 11.9938V12.2492L37.6202 12.4666L37.5478 12.722V13.0461L37.4374 13.4083V13.9192L37.3651 14.1327L37.1862 14.5711L37.2585 14.8228L37.1862 15.0782L37.0416 15.6196L36.8588 16.1305L36.7865 16.3821L36.7523 16.6376L36.8246 16.9998L36.7408 17.1675L43.1358 11.075L43.1587 11.0178V10.7623L43.1967 10.545L43.231 10.1104V9.89305L43.3756 9.42029L43.5584 8.91321L43.486 8.73021L43.6307 8.44045L43.7753 7.78849L43.8096 7.53305L43.8819 7.06409L43.9542 6.84678V6.62946L44.0646 6.37401L44.0266 6.15669L44.1027 5.90125L44.4263 5.86693L45.9489 5.90125H46.3105L46.6341 5.86693H47.0718L47.3954 5.90125L47.757 5.86693L47.9016 5.53905L47.9397 5.03197L48.012 4.78034L48.1567 4.30758L48.1909 3.87294L48.229 3.65562L48.3013 3.40017L48.3736 2.96554V2.74822L48.446 2.49277L48.4802 2.27545V2.02001L48.5526 1.73025L48.5906 1.47862V1.2613L48.5183 0.971539Z" fill="white"/>
<path d="M95 27.4995C95 27.7448 94.6078 27.7744 94.5309 27.5415C93.3133 23.8486 89.8391 21.1858 85.7462 21.1858C83.8468 21.1858 82.0805 21.7577 80.615 22.7414C80.2838 22.9587 79.9679 23.1989 79.671 23.462C78.7422 24.091 77.4708 24.7697 75.8721 25.1738C74.2336 25.5895 72.8497 24.1739 72.8497 22.4836V19.0622C72.8497 17.6134 71.7153 16.3781 70.2688 16.3514C70.0062 16.3476 69.7625 16.3781 69.5227 16.4429C69.1839 16.5344 68.8756 16.6908 68.6054 16.9005C68.5989 16.9069 68.5892 16.9091 68.5811 16.9132C68.5791 16.9143 68.5771 16.9154 68.5753 16.9167C68.5695 16.9206 68.5643 16.9251 68.5584 16.9288C67.6021 17.5141 66.6458 18.0994 65.6895 18.6848C65.0919 19.0508 64.342 19.0508 63.7444 18.6848C62.7826 18.0984 61.8246 17.512 60.8666 16.9256C60.8641 16.9241 60.8618 16.9222 60.8596 16.9203C60.8564 16.9176 60.8531 16.9153 60.8494 16.9134C60.8418 16.9095 60.8308 16.9065 60.8248 16.9005C60.5545 16.6908 60.2462 16.5344 59.9074 16.4429C59.6714 16.3781 59.424 16.3476 59.1651 16.3514C57.7186 16.3781 56.5805 17.6134 56.5805 19.0622V22.4836C56.5805 24.1739 55.1965 25.5895 53.5581 25.1738C51.9593 24.7697 50.6879 24.091 49.7591 23.462C49.4622 23.1989 49.1463 22.9587 48.8151 22.7414C47.3496 21.7577 45.5834 21.1858 43.6839 21.1858C42.7513 21.1858 41.8529 21.3231 41.0041 21.5823C38.5869 22.3144 36.5847 24.011 35.4541 26.2261C35.2365 26.6462 35.0509 27.086 34.9001 27.5418C34.8229 27.7751 34.4302 27.7453 34.4302 27.4995C34.4302 25.0061 35.024 22.6537 36.0784 20.572C36.8197 19.0985 37.7976 17.7605 38.9563 16.6103C38.9646 16.602 38.9588 16.5878 38.9471 16.5878C38.9352 16.5878 38.9295 16.5734 38.938 16.5652C40.1635 15.3984 41.3927 14.2279 42.6181 13.0573C45.4281 10.3825 48.2382 7.70465 51.0482 5.02646C51.7145 4.39141 52.2668 3.63029 52.9911 3.06217C53.1297 2.95346 53.2747 2.85261 53.4252 2.76011C53.43 2.75714 53.435 2.75439 53.4401 2.75185C54.1024 2.34771 54.8751 2.11133 55.7088 2.11133C57.0449 2.11133 58.2439 2.7061 59.0509 3.64781L59.5762 4.17395C60.1624 4.70009 60.7296 5.2453 61.2892 5.79431C61.6203 6.09932 61.9553 6.40814 62.2827 6.71696C63.653 8.00181 65.7771 8.00181 67.1474 6.71696C67.4786 6.40814 67.8098 6.09932 68.1448 5.79431C68.7043 5.2453 69.2677 4.70009 69.8539 4.17395L70.3792 3.64781C71.1862 2.7061 72.3853 2.11133 73.7214 2.11133C74.5519 2.11133 75.3221 2.34599 75.9828 2.74742C75.9876 2.75037 75.9926 2.75312 75.9977 2.75566C76.3278 2.95773 76.6317 3.19992 76.8994 3.47721C77.2524 3.84282 77.5651 4.24787 77.933 4.59842C82.1184 8.58638 86.307 12.5775 90.4921 16.5652C90.5007 16.5734 90.4949 16.5878 90.483 16.5878C90.4713 16.5878 90.4655 16.602 90.4738 16.6103C93.2697 19.388 95 23.2409 95 27.4995Z" fill="#1758FF"/>
</g>
<defs>
<clipPath id="clip0_17_3694">
<rect width="95" height="28.3468" fill="white" transform="translate(0 0.82666)"/>
</clipPath>
</defs>
</svg>
