<?xml version="1.0" encoding="utf-8"?><svg xmlns="http://www.w3.org/2000/svg" xmlns:xlink="http://www.w3.org/1999/xlink"><symbol viewBox="0 0 17 12" id="arrow" xmlns="http://www.w3.org/2000/svg"><path fill-rule="evenodd" clip-rule="evenodd" d="M14.7491 6.0025L10.2793 1.53008L11.3403 0.469727L16.8704 6.00311L11.34 11.5304L10.2796 10.4694L14.7491 6.0025Z"/><path fill-rule="evenodd" clip-rule="evenodd" d="M0 5.25H15V6.75H0V5.25Z"/></symbol><symbol viewBox="0 0 18 18" id="error" xmlns="http://www.w3.org/2000/svg"><path d="M8.99692 16.4998C13.1219 16.4998 16.4969 13.1248 16.4969 8.99982C16.4969 4.87482 13.1219 1.49982 8.99692 1.49982C4.87192 1.49982 1.49692 4.87482 1.49692 8.99982C1.49692 13.1248 4.87192 16.4998 8.99692 16.4998Z"/><path d="M9 5.99982V9.74982"/><path d="M8.99445 12.0002H9.00118"/></symbol><symbol viewBox="0 0 18 18" id="valid" xmlns="http://www.w3.org/2000/svg"><path d="M8.99689 16.4998C13.1219 16.4998 16.4969 13.1248 16.4969 8.99982C16.4969 4.87482 13.1219 1.49982 8.99689 1.49982C4.87189 1.49982 1.49689 4.87482 1.49689 8.99982C1.49689 13.1248 4.87189 16.4998 8.99689 16.4998Z"/><path d="M12.2691 7.16733L8.37885 11.1381L6.43302 9.3179"/></symbol></svg>