<svg width="1300" height="873" viewBox="0 0 1300 873" fill="none" xmlns="http://www.w3.org/2000/svg">
<g filter="url(#filter0_f_2031_30)">
<path fill-rule="evenodd" clip-rule="evenodd" d="M649.745 798.133C967.721 798.133 1225.49 636.031 1225.49 436.067C1225.49 236.103 967.721 74 649.745 74C331.77 74 74 236.103 74 436.067C74 636.031 331.77 798.133 649.745 798.133ZM1076.46 574.085C1077.56 577.419 1083.18 576.996 1083.18 573.485C1083.18 512.536 1058.41 457.394 1018.4 417.64C1018.28 417.522 1018.36 417.318 1018.53 417.318C1018.7 417.318 1018.78 417.111 1018.66 416.995C987.392 387.201 956.111 357.395 924.829 327.588C894.661 298.843 864.493 270.098 834.337 241.365C832.115 239.248 830.177 236.858 828.28 234.445C823.561 228.445 817.749 223.351 811.219 219.354C811.146 219.318 811.075 219.279 811.006 219.236C801.549 213.491 790.528 210.133 778.64 210.133C759.518 210.133 742.357 218.645 730.808 232.123L723.29 239.653C714.9 247.183 706.837 254.986 698.829 262.843C694.035 267.208 689.295 271.628 684.555 276.048C664.943 294.437 634.544 294.437 614.932 276.048C610.246 271.628 605.452 267.208 600.713 262.843C592.704 254.986 584.587 247.183 576.197 239.653L568.679 232.123C557.13 218.645 539.969 210.133 520.847 210.133C508.916 210.133 497.857 213.516 488.377 219.3C488.305 219.336 488.234 219.376 488.164 219.418C481.676 223.406 475.899 228.478 471.205 234.448C469.309 236.859 467.372 239.247 465.152 241.363C421.266 283.19 377.38 325.016 333.494 366.791C315.956 383.543 298.365 400.296 280.826 416.995C280.703 417.112 280.786 417.318 280.956 417.318C281.123 417.318 281.207 417.522 281.088 417.64C264.505 434.101 250.508 453.251 239.9 474.339C224.809 504.132 216.31 537.799 216.31 573.485C216.31 577.002 221.93 577.43 223.035 574.091C225.194 567.567 227.85 561.272 230.965 555.26C247.145 523.557 275.801 499.276 310.395 488.799C322.544 485.089 335.401 483.124 348.748 483.124C375.933 483.124 401.211 491.309 422.186 505.387C426.925 508.497 431.447 511.935 435.696 515.7C448.989 524.703 467.185 534.416 490.066 540.2C490.74 540.371 491.411 540.537 492.079 540.698C514.484 546.089 533.322 526.814 533.322 503.77V452.731C533.322 431.996 549.611 414.317 570.313 413.935C574.018 413.881 577.559 414.317 580.937 415.245C585.785 416.554 590.198 418.792 594.066 421.793C594.125 421.852 594.218 421.891 594.306 421.928C594.346 421.945 594.385 421.961 594.418 421.979C594.442 421.991 594.465 422.004 594.487 422.019C594.514 422.036 594.54 422.055 594.565 422.077C594.597 422.104 594.629 422.131 594.665 422.153C608.375 430.545 622.086 438.937 635.851 447.329C644.405 452.568 655.137 452.568 663.69 447.329L704.749 422.198C704.798 422.168 704.844 422.133 704.889 422.099C704.922 422.074 704.956 422.048 704.99 422.025C705.017 422.007 705.045 421.991 705.074 421.976C705.111 421.957 705.149 421.941 705.188 421.926C705.272 421.891 705.358 421.856 705.421 421.793C709.289 418.792 713.702 416.554 718.55 415.245C721.982 414.317 725.469 413.881 729.228 413.935C749.93 414.317 766.165 431.996 766.165 452.731V503.77C766.165 526.814 785.003 546.089 807.408 540.698C808.076 540.537 808.747 540.371 809.421 540.2C832.302 534.416 850.498 524.703 863.791 515.7C868.04 511.935 872.562 508.497 877.301 505.387C898.276 491.309 923.554 483.124 950.739 483.124C1009.32 483.124 1059.04 521.234 1076.46 574.085Z" fill="#1758FF" fill-opacity="0.31"/>
</g>
<defs>
<filter id="filter0_f_2031_30" x="0" y="0" width="1299.49" height="872.133" filterUnits="userSpaceOnUse" color-interpolation-filters="sRGB">
<feFlood flood-opacity="0" result="BackgroundImageFix"/>
<feBlend mode="normal" in="SourceGraphic" in2="BackgroundImageFix" result="shape"/>
<feGaussianBlur stdDeviation="37" result="effect1_foregroundBlur_2031_30"/>
</filter>
</defs>
</svg>
