<svg width="398" height="326" viewBox="0 0 398 326" fill="none" xmlns="http://www.w3.org/2000/svg">
<rect width="397" height="325.033" rx="20" transform="matrix(1 0 0 -1 0.577637 325.033)" fill="white"/>
<path d="M29.3247 283.131C29.3247 280.731 31.2407 279.035 34.0093 279.035C36.6812 279.035 38.5181 280.582 38.5181 282.7C38.5181 284.282 37.4634 285.469 36.0659 286.857L32.9722 289.837V289.889H38.6938V291.999H29.4741V290.215L34.2554 285.609C35.5386 284.326 35.9341 283.684 35.9341 282.805C35.9341 281.856 35.0991 281.1 33.9214 281.1C32.6909 281.1 31.7856 281.962 31.7856 283.131V283.175H29.3247V283.131ZM40.188 283.131C40.188 280.731 42.104 279.035 44.8726 279.035C47.5444 279.035 49.3813 280.582 49.3813 282.7C49.3813 284.282 48.3267 285.469 46.9292 286.857L43.8354 289.837V289.889H49.5571V291.999H40.3374V290.215L45.1187 285.609C46.4019 284.326 46.7974 283.684 46.7974 282.805C46.7974 281.856 45.9624 281.1 44.7847 281.1C43.5542 281.1 42.6489 281.962 42.6489 283.131V283.175H40.188V283.131ZM53.0288 294.381H51.0864L51.8159 289.626H54.2241L53.0288 294.381ZM60.895 292.28C58.1704 292.28 56.2104 290.663 56.1313 288.369H58.5835C58.7329 289.441 59.6821 290.179 60.9126 290.179C62.3013 290.179 63.2593 289.213 63.2593 287.833C63.2593 286.427 62.3013 285.442 60.9302 285.442C59.9722 285.442 59.146 285.882 58.7065 286.611H56.3335L56.9575 279.316H65.0259V281.426H59.0405L58.7505 284.897H58.8032C59.3218 284.045 60.3325 283.509 61.6245 283.509C64.0503 283.509 65.7905 285.293 65.7905 287.762C65.7905 290.452 63.8042 292.28 60.895 292.28ZM73.314 291.999V289.74H67.0034V287.481C68.1108 285.372 69.4907 283.148 72.0923 279.316H75.8364V287.613H77.4888V289.74H75.8364V291.999H73.314ZM69.3325 287.622V287.692H73.3667V281.197H73.314C71.4683 283.904 70.3608 285.635 69.3325 287.622ZM83.5884 292.28C81.1626 292.28 79.2554 290.839 78.9038 288.764H81.5229C81.7778 289.617 82.6128 290.179 83.6323 290.179C85.3813 290.179 86.4448 288.518 86.3745 285.609C86.3657 285.609 86.3481 285.609 86.3481 285.609H86.3306H86.3218C85.8647 286.848 84.6167 287.683 82.9468 287.683C80.5562 287.683 78.7368 285.908 78.7368 283.5C78.7368 280.889 80.7935 279.026 83.6235 279.026C85.4517 279.026 86.9722 279.844 87.8511 281.346C88.5542 282.427 88.9146 283.851 88.9146 285.548C88.9146 289.749 86.9282 292.28 83.5884 292.28ZM83.6411 285.688C84.9595 285.688 85.9614 284.721 85.9614 283.438C85.9614 282.146 84.9507 281.144 83.6587 281.144C82.3579 281.144 81.3296 282.146 81.3296 283.421C81.3296 284.721 82.3228 285.688 83.6411 285.688Z" fill="#1758FF"/>
<path d="M33.3286 265.999H32.0981V257.242H28.9194V256.135H36.5073V257.242H33.3286V265.999ZM39.2554 266.067C37.1841 266.067 35.8579 264.597 35.8579 262.314C35.8579 260.024 37.1841 258.561 39.2554 258.561C41.3267 258.561 42.6528 260.024 42.6528 262.314C42.6528 264.597 41.3267 266.067 39.2554 266.067ZM39.2554 265.008C40.6294 265.008 41.4429 264.003 41.4429 262.314C41.4429 260.619 40.6294 259.621 39.2554 259.621C37.8813 259.621 37.0679 260.626 37.0679 262.314C37.0679 264.003 37.8882 265.008 39.2554 265.008ZM44.2935 256.969H45.4829V258.63H46.9185V259.614H45.4829V264.037C45.4829 264.714 45.77 265.021 46.3989 265.021C46.5425 265.021 46.8296 265.001 46.9116 264.987V265.992C46.7681 266.026 46.4263 266.053 46.146 266.053C44.813 266.053 44.2935 265.5 44.2935 264.085V259.614H43.2681V258.63H44.2935V256.969ZM50.5757 265.035C51.7788 265.035 52.6606 264.256 52.6606 263.196V262.601L50.7329 262.724C49.6255 262.793 49.0513 263.196 49.0513 263.907C49.0513 264.591 49.646 265.035 50.5757 265.035ZM50.3228 266.067C48.8257 266.067 47.8345 265.206 47.8345 263.9C47.8345 262.635 48.8052 261.89 50.5962 261.781L52.6606 261.658V261.043C52.6606 260.127 52.0591 259.621 50.9722 259.621C50.1177 259.621 49.4819 260.058 49.3384 260.756H48.1968C48.231 259.511 49.4409 258.561 50.9858 258.561C52.729 258.561 53.8501 259.491 53.8501 260.94V265.999H52.7222V264.72H52.6948C52.2778 265.541 51.355 266.067 50.3228 266.067ZM55.4976 265.999V255.704H56.687V265.999H55.4976Z" fill="#7F7F7F"/>
<path d="M369.578 251.545V297.033H116.578V260.226C123.528 257.908 133.298 255.601 145.018 255.611C150.518 255.621 156.668 255.631 164.098 257.758C169.288 259.247 174.978 261.724 182.818 265.13C189.098 267.867 191.338 269.066 195.038 268.966C198.788 268.876 201.498 267.517 206.738 264.371C221.038 255.811 223.268 252.514 232.038 249.268C238.978 246.701 242.828 246.831 245.248 247.2C248.868 247.759 251.538 249.248 254.688 250.996C257.768 252.704 258.108 253.343 264.518 257.938C268.678 260.925 270.808 262.443 272.988 263.622C278.168 266.429 280.958 267.937 284.488 267.777C289.058 267.567 292.628 264.661 297.878 260.395C301.908 257.129 303.798 254.602 307.888 254.152C309.808 253.943 311.318 254.282 312.548 254.562C317.738 255.731 319.848 258.547 323.128 260.595C328.288 263.832 334.398 263.931 337.848 264.001C346.838 264.161 353.698 260.635 360.378 257.209C364.488 255.101 367.578 253.004 369.578 251.545Z" fill="url(#paint0_linear_17_3756)" fill-opacity="0.3"/>
<path d="M116.578 260.226C123.528 257.908 133.298 255.601 145.018 255.611C150.518 255.611 156.668 255.631 164.098 257.758C169.288 259.247 174.978 261.724 182.818 265.13C189.098 267.867 191.338 269.066 195.038 268.966C198.788 268.876 201.498 267.517 206.738 264.371C221.038 255.811 223.268 252.514 232.038 249.268C238.978 246.701 242.828 246.831 245.248 247.2C248.868 247.759 251.538 249.248 254.688 250.996C257.768 252.704 258.108 253.343 264.518 257.938C268.678 260.925 270.808 262.443 272.988 263.622C278.168 266.429 280.958 267.937 284.488 267.777C289.058 267.567 292.628 264.661 297.878 260.395C301.908 257.129 303.798 254.602 307.888 254.152C309.808 253.943 311.318 254.282 312.548 254.562C317.738 255.731 319.848 258.547 323.128 260.595C328.288 263.832 334.398 263.931 337.848 264.001C346.838 264.161 353.698 260.635 360.378 257.209C364.488 255.101 367.578 253.004 369.578 251.545" stroke="#1758FF" stroke-width="2" stroke-miterlimit="10"/>
<path d="M32.6968 218.999H29.3979V210.543H32.7085C34.1558 210.543 35.1343 211.387 35.1343 212.653C35.1343 213.532 34.4897 214.352 33.6753 214.499V214.545C34.8237 214.692 35.562 215.5 35.562 216.625C35.562 218.114 34.4956 218.999 32.6968 218.999ZM30.4526 211.475V214.188H32.1401C33.3882 214.188 34.0679 213.69 34.0679 212.776C34.0679 211.938 33.4937 211.475 32.4683 211.475H30.4526ZM30.4526 218.067H32.5386C33.8101 218.067 34.478 217.551 34.478 216.573C34.478 215.594 33.7866 215.096 32.439 215.096H30.4526V218.067ZM36.687 218.999V210.174H37.7065V218.999H36.687ZM41.7495 219.057C39.9741 219.057 38.8374 217.797 38.8374 215.84C38.8374 213.877 39.9741 212.624 41.7495 212.624C43.5249 212.624 44.6616 213.877 44.6616 215.84C44.6616 217.797 43.5249 219.057 41.7495 219.057ZM41.7495 218.149C42.9272 218.149 43.6245 217.288 43.6245 215.84C43.6245 214.387 42.9272 213.532 41.7495 213.532C40.5718 213.532 39.8745 214.393 39.8745 215.84C39.8745 217.288 40.5776 218.149 41.7495 218.149ZM50.9546 214.739H49.9526C49.8237 214.065 49.2612 213.532 48.312 213.532C47.2104 213.532 46.4604 214.446 46.4604 215.84C46.4604 217.276 47.2222 218.149 48.3237 218.149C49.2026 218.149 49.7886 217.739 49.9644 216.977H50.9663C50.7964 218.208 49.7593 219.057 48.3179 219.057C46.5835 219.057 45.4233 217.827 45.4233 215.84C45.4233 213.901 46.5776 212.624 48.3062 212.624C49.8706 212.624 50.8257 213.631 50.9546 214.739ZM53.0229 215.506L55.853 212.682H57.0952L54.3354 215.413L57.1772 218.999H55.9937L53.6206 216.04L53.0229 216.602V218.999H52.0034V210.174H53.0229V215.506ZM60.1831 213.52C59.1929 213.52 58.478 214.241 58.4077 215.307H61.8823C61.8589 214.235 61.1792 213.52 60.1831 213.52ZM61.8589 217.194H62.8667C62.6909 218.278 61.5952 219.057 60.2476 219.057C58.4722 219.057 57.353 217.821 57.353 215.864C57.353 213.907 58.478 212.624 60.2007 212.624C61.8882 212.624 62.9429 213.813 62.9429 215.723V216.122H58.4077V216.18C58.4077 217.381 59.146 218.161 60.271 218.161C61.062 218.161 61.6772 217.786 61.8589 217.194ZM66.4116 219.057C64.8237 219.057 63.7046 217.768 63.7046 215.84C63.7046 213.913 64.8179 212.624 66.3882 212.624C67.2905 212.624 68.0171 213.016 68.4038 213.708H68.4272V210.174H69.4468V218.999H68.4741V217.932H68.4565C68.0464 218.659 67.3257 219.057 66.4116 219.057ZM66.5933 213.532C65.4858 213.532 64.7476 214.446 64.7476 215.84C64.7476 217.241 65.4858 218.149 66.5933 218.149C67.689 218.149 68.4331 217.217 68.4331 215.84C68.4331 214.469 67.689 213.532 66.5933 213.532Z" fill="#7F7F7F"/>
<path d="M90.7116 218.499C91.0965 219.165 92.0588 219.165 92.4437 218.499L95.0417 213.999C95.4266 213.332 94.9455 212.499 94.1757 212.499H88.9796C88.2098 212.499 87.7286 213.332 88.1135 213.999L90.7116 218.499Z" fill="#FF2525"/>
<path d="M104.222 219.139C102.248 219.139 101.105 217.44 101.105 214.768C101.105 212.12 102.259 210.403 104.222 210.403C106.185 210.403 107.328 212.108 107.328 214.762C107.328 217.434 106.191 219.139 104.222 219.139ZM104.222 218.219C105.541 218.219 106.267 216.877 106.267 214.768C106.267 212.688 105.529 211.329 104.222 211.329C102.916 211.329 102.166 212.7 102.166 214.762C102.166 216.872 102.898 218.219 104.222 218.219ZM109.085 219.057C108.71 219.057 108.417 218.764 108.417 218.389C108.417 218.008 108.71 217.721 109.085 217.721C109.466 217.721 109.753 218.008 109.753 218.389C109.753 218.764 109.466 219.057 109.085 219.057ZM113.96 219.139C111.986 219.139 110.843 217.44 110.843 214.768C110.843 212.12 111.998 210.403 113.96 210.403C115.923 210.403 117.066 212.108 117.066 214.762C117.066 217.434 115.929 219.139 113.96 219.139ZM113.96 218.219C115.279 218.219 116.005 216.877 116.005 214.768C116.005 212.688 115.267 211.329 113.96 211.329C112.654 211.329 111.904 212.7 111.904 214.762C111.904 216.872 112.636 218.219 113.96 218.219ZM119.416 218.999H118.396L124.583 210.543H125.591L119.416 218.999ZM126.136 216.983C126.136 218.26 125.439 219.092 124.367 219.092C123.294 219.092 122.591 218.26 122.591 216.983C122.591 215.711 123.294 214.879 124.367 214.879C125.439 214.879 126.136 215.711 126.136 216.983ZM124.367 218.377C124.882 218.377 125.199 217.844 125.199 216.983C125.199 216.116 124.894 215.6 124.367 215.6C123.851 215.6 123.529 216.133 123.529 216.983C123.529 217.838 123.851 218.377 124.367 218.377ZM121.431 212.542C121.431 213.819 120.734 214.651 119.662 214.651C118.589 214.651 117.886 213.819 117.886 212.542C117.886 211.27 118.589 210.438 119.662 210.438C120.734 210.438 121.431 211.27 121.431 212.542ZM119.662 213.936C120.177 213.936 120.494 213.403 120.494 212.542C120.494 211.674 120.189 211.159 119.662 211.159C119.146 211.159 118.824 211.692 118.824 212.542C118.824 213.397 119.146 213.936 119.662 213.936Z" fill="#FF2525"/>
<path d="M172.779 218.999H171.724V215.36L168.724 210.543H169.925L172.234 214.34H172.269L174.578 210.543H175.779L172.779 215.36V218.999ZM178.023 213.52C177.033 213.52 176.318 214.241 176.248 215.307H179.722C179.699 214.235 179.019 213.52 178.023 213.52ZM179.699 217.194H180.707C180.531 218.278 179.435 219.057 178.087 219.057C176.312 219.057 175.193 217.821 175.193 215.864C175.193 213.907 176.318 212.624 178.041 212.624C179.728 212.624 180.783 213.813 180.783 215.723V216.122H176.248V216.18C176.248 217.381 176.986 218.161 178.111 218.161C178.902 218.161 179.517 217.786 179.699 217.194ZM183.917 218.172C184.949 218.172 185.705 217.504 185.705 216.596V216.086L184.052 216.192C183.103 216.25 182.611 216.596 182.611 217.206C182.611 217.792 183.121 218.172 183.917 218.172ZM183.701 219.057C182.417 219.057 181.568 218.319 181.568 217.2C181.568 216.116 182.4 215.477 183.935 215.383L185.705 215.278V214.75C185.705 213.965 185.189 213.532 184.257 213.532C183.525 213.532 182.98 213.907 182.857 214.504H181.878C181.908 213.438 182.945 212.624 184.269 212.624C185.763 212.624 186.724 213.42 186.724 214.663V218.999H185.757V217.903H185.734C185.376 218.606 184.585 219.057 183.701 219.057ZM188.078 218.999V212.682H189.039V213.708H189.062C189.25 213.045 189.853 212.624 190.591 212.624C190.714 212.624 190.896 212.641 190.984 212.665V213.672C190.902 213.637 190.632 213.602 190.457 213.602C189.636 213.602 189.097 214.2 189.097 215.09V218.999H188.078ZM197.359 219.057C195.583 219.057 194.447 217.797 194.447 215.84C194.447 213.877 195.583 212.624 197.359 212.624C199.134 212.624 200.271 213.877 200.271 215.84C200.271 217.797 199.134 219.057 197.359 219.057ZM197.359 218.149C198.537 218.149 199.234 217.288 199.234 215.84C199.234 214.387 198.537 213.532 197.359 213.532C196.181 213.532 195.484 214.393 195.484 215.84C195.484 217.288 196.187 218.149 197.359 218.149ZM201.343 218.999V212.682H202.304V213.708H202.328C202.726 212.993 203.412 212.624 204.39 212.624C205.779 212.624 206.64 213.514 206.64 214.95V218.999H205.621V215.125C205.621 214.094 205.082 213.532 204.085 213.532C203.048 213.532 202.363 214.247 202.363 215.331V218.999H201.343ZM211.41 221.29C211.281 221.29 211.087 221.272 210.964 221.249V220.387C211.082 220.411 211.246 220.422 211.38 220.422C211.966 220.422 212.283 220.141 212.541 219.379L212.664 219.004L210.326 212.682H211.41L213.179 217.961H213.203L214.972 212.682H216.044L213.572 219.385C213.033 220.85 212.529 221.29 211.41 221.29ZM219.226 213.52C218.236 213.52 217.521 214.241 217.451 215.307H220.925C220.902 214.235 220.222 213.52 219.226 213.52ZM220.902 217.194H221.91C221.734 218.278 220.638 219.057 219.291 219.057C217.515 219.057 216.396 217.821 216.396 215.864C216.396 213.907 217.521 212.624 219.244 212.624C220.931 212.624 221.986 213.813 221.986 215.723V216.122H217.451V216.18C217.451 217.381 218.189 218.161 219.314 218.161C220.105 218.161 220.72 217.786 220.902 217.194ZM225.121 218.172C226.152 218.172 226.908 217.504 226.908 216.596V216.086L225.255 216.192C224.306 216.25 223.814 216.596 223.814 217.206C223.814 217.792 224.324 218.172 225.121 218.172ZM224.904 219.057C223.621 219.057 222.771 218.319 222.771 217.2C222.771 216.116 223.603 215.477 225.138 215.383L226.908 215.278V214.75C226.908 213.965 226.392 213.532 225.46 213.532C224.728 213.532 224.183 213.907 224.06 214.504H223.082C223.111 213.438 224.148 212.624 225.472 212.624C226.966 212.624 227.927 213.42 227.927 214.663V218.999H226.96V217.903H226.937C226.58 218.606 225.789 219.057 224.904 219.057ZM229.281 218.999V212.682H230.242V213.708H230.265C230.453 213.045 231.056 212.624 231.794 212.624C231.917 212.624 232.099 212.641 232.187 212.665V213.672C232.105 213.637 231.835 213.602 231.66 213.602C230.839 213.602 230.3 214.2 230.3 215.09V218.999H229.281Z" fill="#7F7F7F"/>
<path d="M252.712 211.499C253.097 210.832 254.059 210.832 254.444 211.499L257.042 215.999C257.427 216.665 256.946 217.499 256.176 217.499H250.98C250.21 217.499 249.729 216.665 250.114 215.999L252.712 211.499Z" fill="#65D909"/>
<path d="M267.283 218.999V217.241H263.035V216.286C263.755 214.95 264.746 213.409 266.744 210.543H268.302V216.315H269.498V217.241H268.302V218.999H267.283ZM264.078 216.292V216.315H267.283V211.422H267.265C265.666 213.708 264.746 215.12 264.078 216.292ZM273.435 219.139C271.648 219.139 270.371 218.125 270.371 216.713C270.371 215.659 271.097 214.792 272.187 214.54V214.516C271.273 214.235 270.705 213.514 270.705 212.624C270.705 211.346 271.865 210.403 273.435 210.403C275.017 210.403 276.16 211.34 276.16 212.629C276.16 213.508 275.603 214.223 274.683 214.516V214.54C275.779 214.797 276.505 215.665 276.505 216.713C276.505 218.131 275.228 219.139 273.435 219.139ZM273.435 218.219C274.601 218.219 275.427 217.557 275.427 216.637C275.427 215.706 274.601 215.049 273.435 215.049C272.275 215.049 271.443 215.711 271.443 216.637C271.443 217.557 272.275 218.219 273.435 218.219ZM273.435 214.124C274.419 214.124 275.117 213.543 275.117 212.723C275.117 211.891 274.425 211.311 273.435 211.311C272.445 211.311 271.753 211.897 271.753 212.723C271.753 213.543 272.445 214.124 273.435 214.124ZM278.562 219.057C278.187 219.057 277.894 218.764 277.894 218.389C277.894 218.008 278.187 217.721 278.562 217.721C278.943 217.721 279.23 218.008 279.23 218.389C279.23 218.764 278.943 219.057 278.562 219.057ZM282.494 215.096V214.206H283.507C284.48 214.206 285.16 213.579 285.16 212.723C285.16 211.885 284.591 211.317 283.519 211.317C282.546 211.317 281.902 211.874 281.808 212.758H280.794C280.912 211.323 281.978 210.403 283.566 210.403C285.078 210.403 286.22 211.311 286.22 212.583C286.22 213.643 285.541 214.405 284.486 214.592V214.616C285.763 214.692 286.583 215.483 286.583 216.672C286.583 218.125 285.259 219.139 283.601 219.139C281.832 219.139 280.701 218.161 280.625 216.76H281.638C281.732 217.627 282.453 218.225 283.589 218.225C284.708 218.225 285.511 217.592 285.511 216.708C285.511 215.711 284.761 215.096 283.554 215.096H282.494ZM290.562 219.139C289.121 219.139 288.013 218.272 287.755 216.948H288.828C289.05 217.715 289.736 218.219 290.574 218.219C291.98 218.219 292.789 216.942 292.818 214.698H292.812C292.806 214.698 292.806 214.698 292.8 214.698C292.443 215.536 291.517 216.081 290.439 216.081C288.828 216.081 287.632 214.891 287.632 213.286C287.632 211.616 288.892 210.397 290.626 210.397C291.898 210.397 292.906 211.083 293.421 212.295C293.703 212.946 293.837 213.708 293.837 214.627C293.837 217.475 292.63 219.139 290.562 219.139ZM290.621 215.155C291.74 215.155 292.572 214.358 292.572 213.28C292.572 212.196 291.728 211.346 290.638 211.346C289.554 211.346 288.699 212.19 288.699 213.25C288.699 214.352 289.513 215.155 290.621 215.155ZM296.193 218.999H295.173L301.361 210.543H302.369L296.193 218.999ZM302.914 216.983C302.914 218.26 302.216 219.092 301.144 219.092C300.072 219.092 299.369 218.26 299.369 216.983C299.369 215.711 300.072 214.879 301.144 214.879C302.216 214.879 302.914 215.711 302.914 216.983ZM301.144 218.377C301.66 218.377 301.976 217.844 301.976 216.983C301.976 216.116 301.671 215.6 301.144 215.6C300.628 215.6 300.306 216.133 300.306 216.983C300.306 217.838 300.628 218.377 301.144 218.377ZM298.208 212.542C298.208 213.819 297.511 214.651 296.439 214.651C295.367 214.651 294.664 213.819 294.664 212.542C294.664 211.27 295.367 210.438 296.439 210.438C297.511 210.438 298.208 211.27 298.208 212.542ZM296.439 213.936C296.955 213.936 297.271 213.403 297.271 212.542C297.271 211.674 296.966 211.159 296.439 211.159C295.923 211.159 295.601 211.692 295.601 212.542C295.601 213.397 295.923 213.936 296.439 213.936Z" fill="#65D909"/>
<path d="M29.5698 182.725H34.1167C36.3511 182.725 37.9058 184.249 37.9058 186.499C37.9058 188.749 36.312 190.272 34.0308 190.272H31.5854V193.999H29.5698V182.725ZM31.5854 184.374V188.647H33.5776C35.0229 188.647 35.8589 187.866 35.8589 186.499C35.8589 185.147 35.0308 184.374 33.5854 184.374H31.5854ZM41.6948 192.6C42.8745 192.6 43.7729 191.866 43.7729 190.827V190.178L41.8198 190.303C40.7573 190.374 40.1948 190.78 40.1948 191.475C40.1948 192.163 40.7886 192.6 41.6948 192.6ZM41.1245 194.092C39.4448 194.092 38.2417 193.069 38.2417 191.553C38.2417 190.03 39.4058 189.163 41.5542 189.03L43.7729 188.897V188.272C43.7729 187.366 43.1636 186.874 42.1167 186.874C41.2339 186.874 40.6011 187.334 40.4683 188.022H38.6714C38.7183 186.459 40.1714 185.342 42.1792 185.342C44.312 185.342 45.6948 186.452 45.6948 188.147V193.999H43.8276V192.624H43.7808C43.312 193.538 42.2573 194.092 41.1245 194.092ZM48.2495 197.108C48.1323 197.108 47.6011 197.092 47.4839 197.069V195.522C47.5933 195.545 47.8901 195.553 48.0151 195.553C48.8433 195.553 49.3042 195.233 49.5464 194.428L49.6558 194.03L46.6011 185.459H48.7183L50.7651 192.319H50.8042L52.8433 185.459H54.8979L51.8042 194.295C51.0776 196.397 50.1636 197.108 48.2495 197.108ZM55.8589 193.999V185.459H57.7261V186.959H57.7651C58.1401 185.967 59.0698 185.358 60.1948 185.358C61.3979 185.358 62.2651 185.967 62.5854 187.053H62.6245C63.0386 186.006 64.062 185.358 65.2886 185.358C66.9683 185.358 68.0776 186.483 68.0776 188.186V193.999H66.1323V188.663C66.1323 187.6 65.5698 186.999 64.5698 186.999C63.5933 186.999 62.9136 187.725 62.9136 188.764V193.999H61.0229V188.553C61.0229 187.592 60.4292 186.999 59.4839 186.999C58.4995 186.999 57.8042 187.756 57.8042 188.811V193.999H55.8589ZM73.3589 186.858C72.2183 186.858 71.3901 187.686 71.3042 188.905H75.3511C75.312 187.67 74.5151 186.858 73.3589 186.858ZM75.3589 191.459H77.187C76.937 193.038 75.4214 194.124 73.4292 194.124C70.9058 194.124 69.3433 192.452 69.3433 189.764C69.3433 187.077 70.9136 185.342 73.3589 185.342C75.7495 185.342 77.2651 186.975 77.2651 189.561V190.202H71.2886V190.319C71.2886 191.694 72.1636 192.608 73.4683 192.608C74.4058 192.608 75.1323 192.163 75.3589 191.459ZM78.5776 193.999V185.459H80.4448V186.944H80.4839C80.9917 185.905 81.9292 185.358 83.2417 185.358C85.1323 185.358 86.2886 186.553 86.2886 188.53V193.999H84.3433V188.913C84.3433 187.694 83.687 187.006 82.5151 187.006C81.3198 187.006 80.5229 187.85 80.5229 189.1V193.999H78.5776ZM88.4526 183.553H90.3979V185.459H92.0151V186.967H90.3979V191.467C90.3979 192.17 90.7261 192.506 91.4292 192.506C91.6167 192.506 91.8823 192.483 92.0073 192.467V193.959C91.7964 194.006 91.3979 194.038 90.9839 194.038C89.1714 194.038 88.4526 193.381 88.4526 191.733V186.967H87.2886V185.459H88.4526V183.553ZM93.2417 187.928C93.2417 186.381 94.6167 185.342 96.6714 185.342C98.6401 185.342 100.015 186.405 100.054 187.952H98.2417C98.1792 187.233 97.562 186.78 96.6323 186.78C95.7261 186.78 95.1323 187.194 95.1323 187.819C95.1323 188.295 95.5308 188.624 96.3745 188.819L97.8745 189.163C99.5933 189.561 100.25 190.209 100.25 191.467C100.25 193.053 98.7651 194.124 96.6245 194.124C94.5308 194.124 93.1479 193.069 93.0229 191.483H94.937C95.0542 192.256 95.687 192.686 96.7026 192.686C97.6948 192.686 98.312 192.288 98.312 191.655C98.312 191.155 97.9995 190.889 97.1479 190.686L95.6011 190.311C94.0386 189.944 93.2417 189.139 93.2417 187.928ZM108.875 194.124C106.359 194.124 104.765 192.452 104.765 189.725C104.765 187.03 106.375 185.342 108.875 185.342C111.39 185.342 112.992 187.022 112.992 189.725C112.992 192.452 111.406 194.124 108.875 194.124ZM108.875 192.569C110.218 192.569 111.015 191.522 111.015 189.733C111.015 187.944 110.21 186.897 108.875 186.897C107.546 186.897 106.742 187.952 106.742 189.733C106.742 191.522 107.546 192.569 108.875 192.569ZM121.968 185.459V193.999H120.101V192.506H120.054C119.585 193.545 118.632 194.108 117.335 194.108C115.476 194.108 114.257 192.905 114.257 190.936V185.459H116.203V190.545C116.203 191.788 116.882 192.459 118.031 192.459C119.218 192.459 120.023 191.624 120.023 190.358V185.459H121.968ZM124.171 183.553H126.117V185.459H127.734V186.967H126.117V191.467C126.117 192.17 126.445 192.506 127.148 192.506C127.335 192.506 127.601 192.483 127.726 192.467V193.959C127.515 194.006 127.117 194.038 126.703 194.038C124.89 194.038 124.171 193.381 124.171 191.733V186.967H123.007V185.459H124.171V183.553Z" fill="#1F2A2D"/>
<path d="M35.521 143V140.741H29.2104V138.482C30.3179 136.373 31.6978 134.149 34.2993 130.317H38.0435V138.614H39.6958V140.741H38.0435V143H35.521ZM31.5396 138.623V138.693H35.5737V132.198H35.521C33.6753 134.905 32.5679 136.637 31.5396 138.623ZM46.0239 143.281C43.2993 143.281 41.3394 141.664 41.2603 139.37H43.7124C43.8618 140.442 44.811 141.181 46.0415 141.181C47.4302 141.181 48.3882 140.214 48.3882 138.834C48.3882 137.428 47.4302 136.443 46.0591 136.443C45.1011 136.443 44.2749 136.883 43.8354 137.612H41.4624L42.0864 130.317H50.1548V132.427H44.1694L43.8794 135.898H43.9321C44.4507 135.046 45.4614 134.51 46.7534 134.51C49.1792 134.51 50.9194 136.294 50.9194 138.764C50.9194 141.453 48.9331 143.281 46.0239 143.281ZM54.2241 145.382H52.2817L53.0112 140.627H55.4194L54.2241 145.382ZM61.9497 143.281C58.7593 143.281 56.8169 140.741 56.8169 136.637C56.8169 132.541 58.7769 130.027 61.9497 130.027C65.1226 130.027 67.0737 132.532 67.0737 136.628C67.0737 140.724 65.1401 143.281 61.9497 143.281ZM61.9497 141.154C63.4614 141.154 64.3755 139.528 64.3755 136.637C64.3755 133.771 63.4526 132.154 61.9497 132.154C60.4556 132.154 59.5151 133.78 59.5151 136.637C59.5151 139.52 60.438 141.154 61.9497 141.154ZM73.6831 143.281C70.6069 143.281 68.5415 141.761 68.5415 139.563C68.5415 137.894 69.7544 136.602 71.521 136.312V136.259C70.0444 135.916 69.0513 134.782 69.0513 133.385C69.0513 131.451 70.9673 130.036 73.6831 130.036C76.4077 130.036 78.3062 131.442 78.3062 133.394C78.3062 134.773 77.3218 135.907 75.8452 136.259V136.312C77.6206 136.61 78.8247 137.902 78.8247 139.572C78.8247 141.77 76.7329 143.281 73.6831 143.281ZM73.6831 141.348C75.0806 141.348 76.0474 140.513 76.0474 139.37C76.0474 138.228 75.0806 137.393 73.6831 137.393C72.2856 137.393 71.3101 138.228 71.3101 139.37C71.3101 140.513 72.2856 141.348 73.6831 141.348ZM73.6831 135.459C74.8521 135.459 75.687 134.721 75.687 133.71C75.687 132.69 74.8521 131.952 73.6831 131.952C72.5054 131.952 71.6792 132.699 71.6792 133.71C71.6792 134.721 72.5054 135.459 73.6831 135.459ZM81.1099 143L86.5679 132.479V132.427H80.1167V130.317H89.187V132.453L83.896 143H81.1099Z" fill="#65D909"/>
<path d="M33.3286 117H32.0981V108.243H28.9194V107.136H36.5073V108.243H33.3286V117ZM39.2554 117.068C37.1841 117.068 35.8579 115.599 35.8579 113.315C35.8579 111.025 37.1841 109.562 39.2554 109.562C41.3267 109.562 42.6528 111.025 42.6528 113.315C42.6528 115.599 41.3267 117.068 39.2554 117.068ZM39.2554 116.009C40.6294 116.009 41.4429 115.004 41.4429 113.315C41.4429 111.62 40.6294 110.622 39.2554 110.622C37.8813 110.622 37.0679 111.627 37.0679 113.315C37.0679 115.004 37.8882 116.009 39.2554 116.009ZM46.6997 117.068C44.8472 117.068 43.5415 115.564 43.5415 113.315C43.5415 111.066 44.8403 109.562 46.6724 109.562C47.7251 109.562 48.5728 110.021 49.0239 110.827H49.0513V106.705H50.2407V117H49.106V115.756H49.0854C48.6069 116.604 47.7661 117.068 46.6997 117.068ZM46.9116 110.622C45.6196 110.622 44.7583 111.688 44.7583 113.315C44.7583 114.949 45.6196 116.009 46.9116 116.009C48.1899 116.009 49.0581 114.922 49.0581 113.315C49.0581 111.716 48.1899 110.622 46.9116 110.622ZM54.3354 116.036C55.5386 116.036 56.4204 115.257 56.4204 114.197V113.603L54.4927 113.726C53.3853 113.794 52.811 114.197 52.811 114.908C52.811 115.592 53.4058 116.036 54.3354 116.036ZM54.0825 117.068C52.5854 117.068 51.5942 116.207 51.5942 114.901C51.5942 113.637 52.5649 112.892 54.356 112.782L56.4204 112.659V112.044C56.4204 111.128 55.8188 110.622 54.7319 110.622C53.8774 110.622 53.2417 111.06 53.0981 111.757H51.9565C51.9907 110.513 53.2007 109.562 54.7456 109.562C56.4888 109.562 57.6099 110.492 57.6099 111.941V117H56.4819V115.722H56.4546C56.0376 116.542 55.1147 117.068 54.0825 117.068ZM59.8179 119.673C59.6675 119.673 59.4419 119.652 59.2983 119.625V118.62C59.4351 118.647 59.6265 118.661 59.7837 118.661C60.4673 118.661 60.8364 118.333 61.1372 117.444L61.2808 117.007L58.5532 109.631H59.8179L61.8823 115.79H61.9097L63.9741 109.631H65.2251L62.3403 117.451C61.7114 119.16 61.1235 119.673 59.8179 119.673Z" fill="#7F7F7F"/>
<path d="M369.578 98.6626V153.999H116.578V120.558C118.958 122.876 122.698 126.202 127.908 129.678C130.648 131.506 132.048 132.435 133.908 133.064C141.758 135.711 150.788 131.786 153.418 130.517C164.098 125.363 163.968 118.391 174.338 115.843C175.048 115.674 177.298 115.474 181.798 115.094C200.708 113.466 202.168 114.375 208.058 112.777C214.588 111.009 219.588 108.052 222.568 106.274C228.318 102.868 230.288 100.511 235.818 98.7425C240.488 97.2442 244.508 97.1942 247.008 97.1843C256.358 97.1243 259.518 99.9112 275.388 104.146C289.818 107.992 293.528 107.363 296.088 106.274C298.978 105.055 299.228 103.747 304.368 101.15C306.788 99.9312 310.838 97.8835 315.838 97.1743C319.468 96.6548 323.158 97.3341 330.388 98.7126C347.418 101.969 347.768 102.059 349.058 102.149C353.738 102.468 360.688 102.139 369.578 98.6626Z" fill="url(#paint1_linear_17_3756)" fill-opacity="0.3"/>
<path d="M116.578 120.558C118.958 122.876 122.698 126.202 127.908 129.678C130.648 131.506 132.048 132.435 133.908 133.064C141.758 135.711 150.788 131.786 153.418 130.517C164.098 125.363 163.968 118.391 174.338 115.843C175.048 115.674 177.298 115.474 181.798 115.094C200.708 113.466 202.168 114.375 208.058 112.777C214.588 111.009 219.588 108.052 222.568 106.274C228.318 102.868 230.288 100.511 235.818 98.7425C240.488 97.2442 244.508 97.1942 247.008 97.1843C256.358 97.1243 259.518 99.9112 275.388 104.146C289.818 107.992 293.528 107.363 296.088 106.274C298.978 105.055 299.228 103.747 304.368 101.15C306.788 99.9312 310.838 97.8835 315.838 97.1743C319.468 96.6548 323.158 97.3341 330.388 98.7126C347.418 101.969 347.768 102.059 349.058 102.149C353.738 102.468 360.688 102.149 369.578 98.6626" stroke="#65D909" stroke-width="2" stroke-miterlimit="10"/>
<path d="M32.6968 69H29.3979V60.5449H32.7085C34.1558 60.5449 35.1343 61.3887 35.1343 62.6543C35.1343 63.5332 34.4897 64.3535 33.6753 64.5V64.5469C34.8237 64.6934 35.562 65.502 35.562 66.627C35.562 68.1152 34.4956 69 32.6968 69ZM30.4526 61.4766V64.1895H32.1401C33.3882 64.1895 34.0679 63.6914 34.0679 62.7773C34.0679 61.9395 33.4937 61.4766 32.4683 61.4766H30.4526ZM30.4526 68.0684H32.5386C33.8101 68.0684 34.478 67.5527 34.478 66.5742C34.478 65.5957 33.7866 65.0977 32.439 65.0977H30.4526V68.0684ZM36.687 69V60.1758H37.7065V69H36.687ZM41.7495 69.0586C39.9741 69.0586 38.8374 67.7988 38.8374 65.8418C38.8374 63.8789 39.9741 62.625 41.7495 62.625C43.5249 62.625 44.6616 63.8789 44.6616 65.8418C44.6616 67.7988 43.5249 69.0586 41.7495 69.0586ZM41.7495 68.1504C42.9272 68.1504 43.6245 67.2891 43.6245 65.8418C43.6245 64.3887 42.9272 63.5332 41.7495 63.5332C40.5718 63.5332 39.8745 64.3945 39.8745 65.8418C39.8745 67.2891 40.5776 68.1504 41.7495 68.1504ZM50.9546 64.7402H49.9526C49.8237 64.0664 49.2612 63.5332 48.312 63.5332C47.2104 63.5332 46.4604 64.4473 46.4604 65.8418C46.4604 67.2773 47.2222 68.1504 48.3237 68.1504C49.2026 68.1504 49.7886 67.7402 49.9644 66.9785H50.9663C50.7964 68.209 49.7593 69.0586 48.3179 69.0586C46.5835 69.0586 45.4233 67.8281 45.4233 65.8418C45.4233 63.9023 46.5776 62.625 48.3062 62.625C49.8706 62.625 50.8257 63.6328 50.9546 64.7402ZM53.0229 65.5078L55.853 62.6836H57.0952L54.3354 65.4141L57.1772 69H55.9937L53.6206 66.041L53.0229 66.6035V69H52.0034V60.1758H53.0229V65.5078ZM60.1831 63.5215C59.1929 63.5215 58.478 64.2422 58.4077 65.3086H61.8823C61.8589 64.2363 61.1792 63.5215 60.1831 63.5215ZM61.8589 67.1953H62.8667C62.6909 68.2793 61.5952 69.0586 60.2476 69.0586C58.4722 69.0586 57.353 67.8223 57.353 65.8652C57.353 63.9082 58.478 62.625 60.2007 62.625C61.8882 62.625 62.9429 63.8145 62.9429 65.7246V66.123H58.4077V66.1816C58.4077 67.3828 59.146 68.1621 60.271 68.1621C61.062 68.1621 61.6772 67.7871 61.8589 67.1953ZM66.4116 69.0586C64.8237 69.0586 63.7046 67.7695 63.7046 65.8418C63.7046 63.9141 64.8179 62.625 66.3882 62.625C67.2905 62.625 68.0171 63.0176 68.4038 63.709H68.4272V60.1758H69.4468V69H68.4741V67.9336H68.4565C68.0464 68.6602 67.3257 69.0586 66.4116 69.0586ZM66.5933 63.5332C65.4858 63.5332 64.7476 64.4473 64.7476 65.8418C64.7476 67.2422 65.4858 68.1504 66.5933 68.1504C67.689 68.1504 68.4331 67.2188 68.4331 65.8418C68.4331 64.4707 67.689 63.5332 66.5933 63.5332Z" fill="#7F7F7F"/>
<path d="M90.7116 68.5C91.0965 69.1667 92.0588 69.1667 92.4437 68.5L95.0417 64C95.4266 63.3333 94.9455 62.5 94.1757 62.5H88.9796C88.2098 62.5 87.7286 63.3333 88.1135 64L90.7116 68.5Z" fill="#FF2525"/>
<path d="M103.419 69V61.6641H103.396L101.158 63.2754V62.1621L103.408 60.5449H104.439V69H103.419ZM107.128 69.0586C106.753 69.0586 106.46 68.7656 106.46 68.3906C106.46 68.0098 106.753 67.7227 107.128 67.7227C107.509 67.7227 107.796 68.0098 107.796 68.3906C107.796 68.7656 107.509 69.0586 107.128 69.0586ZM109.285 62.9824C109.285 61.5059 110.48 60.4043 112.074 60.4043C113.585 60.4043 114.775 61.4297 114.775 62.7246C114.775 63.668 114.347 64.3711 112.935 65.8301L110.796 68.0391V68.0625H114.916V69H109.337V68.2734L112.314 65.1387C113.451 63.9434 113.72 63.4922 113.72 62.7891C113.72 61.9746 112.976 61.3242 112.044 61.3242C111.054 61.3242 110.304 62.0391 110.304 62.9824V62.9883H109.285V62.9824ZM119.041 69.1406C117.423 69.1406 116.228 68.1328 116.14 66.6914H117.177C117.271 67.5938 118.039 68.2148 119.052 68.2148C120.201 68.2148 120.998 67.418 120.998 66.2812C120.998 65.1445 120.195 64.3301 119.07 64.3301C118.279 64.3301 117.605 64.6875 117.259 65.2793H116.269L116.732 60.5449H121.572V61.4824H117.599L117.341 64.2363H117.365C117.746 63.7266 118.449 63.4219 119.257 63.4219C120.88 63.4219 122.052 64.6113 122.052 66.252C122.052 67.9512 120.804 69.1406 119.041 69.1406ZM124.291 69H123.271L129.458 60.5449H130.466L124.291 69ZM131.011 66.9844C131.011 68.2617 130.314 69.0938 129.242 69.0938C128.169 69.0938 127.466 68.2617 127.466 66.9844C127.466 65.7129 128.169 64.8809 129.242 64.8809C130.314 64.8809 131.011 65.7129 131.011 66.9844ZM129.242 68.3789C129.757 68.3789 130.074 67.8457 130.074 66.9844C130.074 66.1172 129.769 65.6016 129.242 65.6016C128.726 65.6016 128.404 66.1348 128.404 66.9844C128.404 67.8398 128.726 68.3789 129.242 68.3789ZM126.306 62.543C126.306 63.8203 125.609 64.6523 124.537 64.6523C123.464 64.6523 122.761 63.8203 122.761 62.543C122.761 61.2715 123.464 60.4395 124.537 60.4395C125.609 60.4395 126.306 61.2715 126.306 62.543ZM124.537 63.9375C125.052 63.9375 125.369 63.4043 125.369 62.543C125.369 61.6758 125.064 61.1602 124.537 61.1602C124.021 61.1602 123.699 61.6934 123.699 62.543C123.699 63.3984 124.021 63.9375 124.537 63.9375Z" fill="#FF2525"/>
<path d="M172.779 69H171.724V65.3613L168.724 60.5449H169.925L172.234 64.3418H172.269L174.578 60.5449H175.779L172.779 65.3613V69ZM178.023 63.5215C177.033 63.5215 176.318 64.2422 176.248 65.3086H179.722C179.699 64.2363 179.019 63.5215 178.023 63.5215ZM179.699 67.1953H180.707C180.531 68.2793 179.435 69.0586 178.087 69.0586C176.312 69.0586 175.193 67.8223 175.193 65.8652C175.193 63.9082 176.318 62.625 178.041 62.625C179.728 62.625 180.783 63.8145 180.783 65.7246V66.123H176.248V66.1816C176.248 67.3828 176.986 68.1621 178.111 68.1621C178.902 68.1621 179.517 67.7871 179.699 67.1953ZM183.917 68.1738C184.949 68.1738 185.705 67.5059 185.705 66.5977V66.0879L184.052 66.1934C183.103 66.252 182.611 66.5977 182.611 67.207C182.611 67.793 183.121 68.1738 183.917 68.1738ZM183.701 69.0586C182.417 69.0586 181.568 68.3203 181.568 67.2012C181.568 66.1172 182.4 65.4785 183.935 65.3848L185.705 65.2793V64.752C185.705 63.9668 185.189 63.5332 184.257 63.5332C183.525 63.5332 182.98 63.9082 182.857 64.5059H181.878C181.908 63.4395 182.945 62.625 184.269 62.625C185.763 62.625 186.724 63.4219 186.724 64.6641V69H185.757V67.9043H185.734C185.376 68.6074 184.585 69.0586 183.701 69.0586ZM188.078 69V62.6836H189.039V63.709H189.062C189.25 63.0469 189.853 62.625 190.591 62.625C190.714 62.625 190.896 62.6426 190.984 62.666V63.6738C190.902 63.6387 190.632 63.6035 190.457 63.6035C189.636 63.6035 189.097 64.2012 189.097 65.0918V69H188.078ZM197.359 69.0586C195.583 69.0586 194.447 67.7988 194.447 65.8418C194.447 63.8789 195.583 62.625 197.359 62.625C199.134 62.625 200.271 63.8789 200.271 65.8418C200.271 67.7988 199.134 69.0586 197.359 69.0586ZM197.359 68.1504C198.537 68.1504 199.234 67.2891 199.234 65.8418C199.234 64.3887 198.537 63.5332 197.359 63.5332C196.181 63.5332 195.484 64.3945 195.484 65.8418C195.484 67.2891 196.187 68.1504 197.359 68.1504ZM201.343 69V62.6836H202.304V63.709H202.328C202.726 62.9941 203.412 62.625 204.39 62.625C205.779 62.625 206.64 63.5156 206.64 64.9512V69H205.621V65.127C205.621 64.0957 205.082 63.5332 204.085 63.5332C203.048 63.5332 202.363 64.248 202.363 65.332V69H201.343ZM211.41 71.291C211.281 71.291 211.087 71.2734 210.964 71.25V70.3887C211.082 70.4121 211.246 70.4238 211.38 70.4238C211.966 70.4238 212.283 70.1426 212.541 69.3809L212.664 69.0059L210.326 62.6836H211.41L213.179 67.9629H213.203L214.972 62.6836H216.044L213.572 69.3867C213.033 70.8516 212.529 71.291 211.41 71.291ZM219.226 63.5215C218.236 63.5215 217.521 64.2422 217.451 65.3086H220.925C220.902 64.2363 220.222 63.5215 219.226 63.5215ZM220.902 67.1953H221.91C221.734 68.2793 220.638 69.0586 219.291 69.0586C217.515 69.0586 216.396 67.8223 216.396 65.8652C216.396 63.9082 217.521 62.625 219.244 62.625C220.931 62.625 221.986 63.8145 221.986 65.7246V66.123H217.451V66.1816C217.451 67.3828 218.189 68.1621 219.314 68.1621C220.105 68.1621 220.72 67.7871 220.902 67.1953ZM225.121 68.1738C226.152 68.1738 226.908 67.5059 226.908 66.5977V66.0879L225.255 66.1934C224.306 66.252 223.814 66.5977 223.814 67.207C223.814 67.793 224.324 68.1738 225.121 68.1738ZM224.904 69.0586C223.621 69.0586 222.771 68.3203 222.771 67.2012C222.771 66.1172 223.603 65.4785 225.138 65.3848L226.908 65.2793V64.752C226.908 63.9668 226.392 63.5332 225.46 63.5332C224.728 63.5332 224.183 63.9082 224.06 64.5059H223.082C223.111 63.4395 224.148 62.625 225.472 62.625C226.966 62.625 227.927 63.4219 227.927 64.6641V69H226.96V67.9043H226.937C226.58 68.6074 225.789 69.0586 224.904 69.0586ZM229.281 69V62.6836H230.242V63.709H230.265C230.453 63.0469 231.056 62.625 231.794 62.625C231.917 62.625 232.099 62.6426 232.187 62.666V63.6738C232.105 63.6387 231.835 63.6035 231.66 63.6035C230.839 63.6035 230.3 64.2012 230.3 65.0918V69H229.281Z" fill="#7F7F7F"/>
<path d="M252.712 61.5C253.097 60.8333 254.059 60.8333 254.444 61.5L257.042 66C257.427 66.6667 256.946 67.5 256.176 67.5H250.98C250.21 67.5 249.729 66.6667 250.114 66L252.712 61.5Z" fill="#65D909"/>
<path d="M266.322 69.1465C265.056 69.1465 264.048 68.4609 263.527 67.2422C263.246 66.5918 263.111 65.8301 263.111 64.916C263.111 62.0684 264.324 60.3984 266.392 60.3984C267.828 60.3984 268.929 61.2598 269.199 62.5898H268.126C267.898 61.8223 267.218 61.3301 266.38 61.3301C264.968 61.3301 264.166 62.584 264.13 64.834H264.148C264.529 64.0078 265.46 63.4629 266.509 63.4629C268.121 63.4629 269.316 64.6523 269.316 66.2578C269.316 67.9277 268.056 69.1465 266.322 69.1465ZM266.31 68.209C267.388 68.209 268.244 67.3594 268.244 66.293C268.244 65.1855 267.447 64.3887 266.328 64.3887C265.208 64.3887 264.382 65.1855 264.382 66.2637C264.382 67.3477 265.226 68.209 266.31 68.209ZM272.169 65.0977V64.207H273.183C274.156 64.207 274.835 63.5801 274.835 62.7246C274.835 61.8867 274.267 61.3184 273.195 61.3184C272.222 61.3184 271.578 61.875 271.484 62.7598H270.47C270.587 61.3242 271.654 60.4043 273.242 60.4043C274.753 60.4043 275.896 61.3125 275.896 62.584C275.896 63.6445 275.216 64.4062 274.162 64.5938V64.6172C275.439 64.6934 276.259 65.4844 276.259 66.6738C276.259 68.127 274.935 69.1406 273.277 69.1406C271.507 69.1406 270.376 68.1621 270.3 66.7617H271.314C271.408 67.6289 272.128 68.2266 273.265 68.2266C274.384 68.2266 275.187 67.5938 275.187 66.709C275.187 65.7129 274.437 65.0977 273.23 65.0977H272.169ZM278.386 69.0586C278.011 69.0586 277.718 68.7656 277.718 68.3906C277.718 68.0098 278.011 67.7227 278.386 67.7227C278.767 67.7227 279.054 68.0098 279.054 68.3906C279.054 68.7656 278.767 69.0586 278.386 69.0586ZM283.501 69.1406C281.714 69.1406 280.437 68.127 280.437 66.7148C280.437 65.6602 281.164 64.793 282.253 64.541V64.5176C281.339 64.2363 280.771 63.5156 280.771 62.625C280.771 61.3477 281.931 60.4043 283.501 60.4043C285.083 60.4043 286.226 61.3418 286.226 62.6309C286.226 63.5098 285.669 64.2246 284.75 64.5176V64.541C285.845 64.7988 286.572 65.666 286.572 66.7148C286.572 68.1328 285.294 69.1406 283.501 69.1406ZM283.501 68.2207C284.667 68.2207 285.494 67.5586 285.494 66.6387C285.494 65.707 284.667 65.0508 283.501 65.0508C282.341 65.0508 281.509 65.7129 281.509 66.6387C281.509 67.5586 282.341 68.2207 283.501 68.2207ZM283.501 64.125C284.486 64.125 285.183 63.5449 285.183 62.7246C285.183 61.8926 284.492 61.3125 283.501 61.3125C282.511 61.3125 281.82 61.8984 281.82 62.7246C281.82 63.5449 282.511 64.125 283.501 64.125ZM288.277 69L292.103 61.5059V61.4824H287.55V60.5449H293.146V61.5234L289.384 69H288.277ZM295.49 69H294.47L300.658 60.5449H301.666L295.49 69ZM302.21 66.9844C302.21 68.2617 301.513 69.0938 300.441 69.0938C299.369 69.0938 298.666 68.2617 298.666 66.9844C298.666 65.7129 299.369 64.8809 300.441 64.8809C301.513 64.8809 302.21 65.7129 302.21 66.9844ZM300.441 68.3789C300.957 68.3789 301.273 67.8457 301.273 66.9844C301.273 66.1172 300.968 65.6016 300.441 65.6016C299.925 65.6016 299.603 66.1348 299.603 66.9844C299.603 67.8398 299.925 68.3789 300.441 68.3789ZM297.505 62.543C297.505 63.8203 296.808 64.6523 295.736 64.6523C294.664 64.6523 293.96 63.8203 293.96 62.543C293.96 61.2715 294.664 60.4395 295.736 60.4395C296.808 60.4395 297.505 61.2715 297.505 62.543ZM295.736 63.9375C296.251 63.9375 296.568 63.4043 296.568 62.543C296.568 61.6758 296.263 61.1602 295.736 61.1602C295.22 61.1602 294.898 61.6934 294.898 62.543C294.898 63.3984 295.22 63.9375 295.736 63.9375Z" fill="#65D909"/>
<path d="M29.5698 32.7266H34.1167C36.3511 32.7266 37.9058 34.25 37.9058 36.5C37.9058 38.75 36.312 40.2734 34.0308 40.2734H31.5854V44H29.5698V32.7266ZM31.5854 34.375V38.6484H33.5776C35.0229 38.6484 35.8589 37.8672 35.8589 36.5C35.8589 35.1484 35.0308 34.375 33.5854 34.375H31.5854ZM41.6948 42.6016C42.8745 42.6016 43.7729 41.8672 43.7729 40.8281V40.1797L41.8198 40.3047C40.7573 40.375 40.1948 40.7812 40.1948 41.4766C40.1948 42.1641 40.7886 42.6016 41.6948 42.6016ZM41.1245 44.0938C39.4448 44.0938 38.2417 43.0703 38.2417 41.5547C38.2417 40.0312 39.4058 39.1641 41.5542 39.0312L43.7729 38.8984V38.2734C43.7729 37.3672 43.1636 36.875 42.1167 36.875C41.2339 36.875 40.6011 37.3359 40.4683 38.0234H38.6714C38.7183 36.4609 40.1714 35.3438 42.1792 35.3438C44.312 35.3438 45.6948 36.4531 45.6948 38.1484V44H43.8276V42.625H43.7808C43.312 43.5391 42.2573 44.0938 41.1245 44.0938ZM48.2495 47.1094C48.1323 47.1094 47.6011 47.0938 47.4839 47.0703V45.5234C47.5933 45.5469 47.8901 45.5547 48.0151 45.5547C48.8433 45.5547 49.3042 45.2344 49.5464 44.4297L49.6558 44.0312L46.6011 35.4609H48.7183L50.7651 42.3203H50.8042L52.8433 35.4609H54.8979L51.8042 44.2969C51.0776 46.3984 50.1636 47.1094 48.2495 47.1094ZM55.8589 44V35.4609H57.7261V36.9609H57.7651C58.1401 35.9688 59.0698 35.3594 60.1948 35.3594C61.3979 35.3594 62.2651 35.9688 62.5854 37.0547H62.6245C63.0386 36.0078 64.062 35.3594 65.2886 35.3594C66.9683 35.3594 68.0776 36.4844 68.0776 38.1875V44H66.1323V38.6641C66.1323 37.6016 65.5698 37 64.5698 37C63.5933 37 62.9136 37.7266 62.9136 38.7656V44H61.0229V38.5547C61.0229 37.5938 60.4292 37 59.4839 37C58.4995 37 57.8042 37.7578 57.8042 38.8125V44H55.8589ZM73.3589 36.8594C72.2183 36.8594 71.3901 37.6875 71.3042 38.9062H75.3511C75.312 37.6719 74.5151 36.8594 73.3589 36.8594ZM75.3589 41.4609H77.187C76.937 43.0391 75.4214 44.125 73.4292 44.125C70.9058 44.125 69.3433 42.4531 69.3433 39.7656C69.3433 37.0781 70.9136 35.3438 73.3589 35.3438C75.7495 35.3438 77.2651 36.9766 77.2651 39.5625V40.2031H71.2886V40.3203C71.2886 41.6953 72.1636 42.6094 73.4683 42.6094C74.4058 42.6094 75.1323 42.1641 75.3589 41.4609ZM78.5776 44V35.4609H80.4448V36.9453H80.4839C80.9917 35.9062 81.9292 35.3594 83.2417 35.3594C85.1323 35.3594 86.2886 36.5547 86.2886 38.5312V44H84.3433V38.9141C84.3433 37.6953 83.687 37.0078 82.5151 37.0078C81.3198 37.0078 80.5229 37.8516 80.5229 39.1016V44H78.5776ZM88.4526 33.5547H90.3979V35.4609H92.0151V36.9688H90.3979V41.4688C90.3979 42.1719 90.7261 42.5078 91.4292 42.5078C91.6167 42.5078 91.8823 42.4844 92.0073 42.4688V43.9609C91.7964 44.0078 91.3979 44.0391 90.9839 44.0391C89.1714 44.0391 88.4526 43.3828 88.4526 41.7344V36.9688H87.2886V35.4609H88.4526V33.5547ZM93.2417 37.9297C93.2417 36.3828 94.6167 35.3438 96.6714 35.3438C98.6401 35.3438 100.015 36.4062 100.054 37.9531H98.2417C98.1792 37.2344 97.562 36.7812 96.6323 36.7812C95.7261 36.7812 95.1323 37.1953 95.1323 37.8203C95.1323 38.2969 95.5308 38.625 96.3745 38.8203L97.8745 39.1641C99.5933 39.5625 100.25 40.2109 100.25 41.4688C100.25 43.0547 98.7651 44.125 96.6245 44.125C94.5308 44.125 93.1479 43.0703 93.0229 41.4844H94.937C95.0542 42.2578 95.687 42.6875 96.7026 42.6875C97.6948 42.6875 98.312 42.2891 98.312 41.6562C98.312 41.1562 97.9995 40.8906 97.1479 40.6875L95.6011 40.3125C94.0386 39.9453 93.2417 39.1406 93.2417 37.9297ZM105.179 44V35.4609H107.125V44H105.179ZM106.148 34.375C105.546 34.375 105.054 33.9062 105.054 33.3047C105.054 32.6953 105.546 32.2344 106.148 32.2344C106.757 32.2344 107.242 32.6953 107.242 33.3047C107.242 33.9062 106.757 34.375 106.148 34.375ZM108.843 44V35.4609H110.71V36.9453H110.75C111.257 35.9062 112.195 35.3594 113.507 35.3594C115.398 35.3594 116.554 36.5547 116.554 38.5312V44H114.609V38.9141C114.609 37.6953 113.953 37.0078 112.781 37.0078C111.585 37.0078 110.789 37.8516 110.789 39.1016V44H108.843Z" fill="#1F2A2D"/>
<defs>
<linearGradient id="paint0_linear_17_3756" x1="243.078" y1="246.999" x2="243.078" y2="307.033" gradientUnits="userSpaceOnUse">
<stop stop-color="#555AFE"/>
<stop offset="1" stop-color="white" stop-opacity="0"/>
</linearGradient>
<linearGradient id="paint1_linear_17_3756" x1="243.078" y1="97" x2="243.078" y2="173.999" gradientUnits="userSpaceOnUse">
<stop stop-color="#65D909"/>
<stop offset="1" stop-color="white" stop-opacity="0"/>
</linearGradient>
</defs>
</svg>
